<svg xmlns="http://www.w3.org/2000/svg" width="22.377" height="21.429" viewBox="0 0 22.377 21.429">
  <g id="Group_3734" data-name="Group 3734" transform="translate(-578.88 -211.563)">
    <g id="Group_3733" data-name="Group 3733" transform="translate(578.88 211.563)">
      <path id="Path_17198" data-name="Path 17198" d="M600.864,232.156l-1.716,0v-9.967a.416.416,0,0,0-.416-.416h-5.815v-9.8a.416.416,0,0,0-.415-.416H581.7a.416.416,0,0,0-.416.416h0v20.18l-2.011,0a.416.416,0,0,0,0,.83l21.59-.006a.416.416,0,0,0,0-.83Zm-15.008,0h-1.661V228.42a.416.416,0,0,1,.416-.416h.83a.416.416,0,0,1,.416.416Zm1.662-9.967v9.967h-.83V228.42a1.246,1.246,0,0,0-1.246-1.246h-.831a1.246,1.246,0,0,0-1.246,1.246v3.738h-1.246V212.393h9.968v9.378h-4.153a.416.416,0,0,0-.416.416Zm10.8,9.967h-9.969v-9.551h9.968Z" transform="translate(-578.88 -211.563)" fill="#fff"/>
      <path id="Path_17199" data-name="Path 17199" d="M682.75,230.489h-2.492a.416.416,0,0,0-.416.416V233.4a.416.416,0,0,0,.416.416h2.492a.416.416,0,0,0,.416-.416V230.9A.416.416,0,0,0,682.75,230.489Zm-.416,2.492h-1.662v-1.662h1.662Z" transform="translate(-671.205 -228.584)" fill="#fff"/>
      <path id="Path_17201" data-name="Path 17201" d="M641.479,230.489h-2.492a.416.416,0,0,0-.416.416h0V233.4a.416.416,0,0,0,.416.416h2.492a.416.416,0,0,0,.416-.416h0V230.9a.416.416,0,0,0-.416-.416Zm-.416,2.492H639.4v-1.662h1.662Z" transform="translate(-634.088 -228.584)" fill="#fff"/>
      <path id="Path_17203" data-name="Path 17203" d="M641.479,271.761h-2.492a.416.416,0,0,0-.416.416v2.492a.416.416,0,0,0,.416.416h2.492a.416.416,0,0,0,.416-.416v-2.492A.416.416,0,0,0,641.479,271.761Zm-.416,2.492H639.4v-1.662h1.662Z" transform="translate(-634.088 -265.703)" fill="#fff"/>
      <path id="Path_17203-2" data-name="Path 17203" d="M682.75,271.761h-2.492a.416.416,0,0,0-.416.416v2.492a.416.416,0,0,0,.416.416h2.492a.416.416,0,0,0,.416-.416v-2.492A.416.416,0,0,0,682.75,271.761Zm-.416,2.492h-1.662v-1.662h1.662Z" transform="translate(-671.205 -265.703)" fill="#fff"/>
      <path id="Path_17204" data-name="Path 17204" d="M641.479,317.157h-2.492a.416.416,0,0,0-.416.416h0v2.492a.416.416,0,0,0,.416.416h2.492a.416.416,0,0,0,.416-.416h0v-2.492a.416.416,0,0,0-.416-.416Zm-.416,2.492H639.4v-1.662h1.662Z" transform="translate(-634.088 -306.531)" fill="#fff"/>
      <path id="Path_17205" data-name="Path 17205" d="M742.172,336.991h2.492a.416.416,0,0,0,.416-.416h0v-2.492a.416.416,0,0,0-.416-.416h-2.492a.416.416,0,0,0-.416.416h0v2.492a.416.416,0,0,0,.416.416Zm.416-2.492h1.662v1.662h-1.662Z" transform="translate(-726.888 -321.38)" fill="#fff"/>
      <path id="Path_17207" data-name="Path 17207" d="M742.172,378.275h2.492a.416.416,0,0,0,.416-.416h0v-2.492a.416.416,0,0,0-.416-.416h-2.492a.416.416,0,0,0-.416.416h0v2.492a.416.416,0,0,0,.416.416Zm.416-2.492h1.662v1.662h-1.662Z" transform="translate(-726.888 -358.509)" fill="#fff"/>
      <path id="Path_17208" data-name="Path 17208" d="M700.9,336.991h2.492a.416.416,0,0,0,.416-.416h0v-2.492a.416.416,0,0,0-.416-.416H700.9a.416.416,0,0,0-.416.416h0v2.492a.416.416,0,0,0,.416.416Zm.416-2.492h1.662v1.662h-1.662Z" transform="translate(-689.77 -321.38)" fill="#fff"/>
      <path id="Path_17210" data-name="Path 17210" d="M700.9,378.275h2.492a.416.416,0,0,0,.416-.416h0v-2.492a.416.416,0,0,0-.416-.416H700.9a.416.416,0,0,0-.416.416h0v2.492a.416.416,0,0,0,.416.416Zm.416-2.492h1.662v1.662h-1.662Z" transform="translate(-689.77 -358.509)" fill="#fff"/>
    </g>
  </g>
</svg>
