<svg xmlns="http://www.w3.org/2000/svg" width="25.994" height="24.893" viewBox="0 0 25.994 24.893">
  <g id="Group_3734" data-name="Group 3734" transform="translate(-578.88 -211.563)">
    <g id="Group_3733" data-name="Group 3733" transform="translate(576.877 211.563)">
      <path id="Path_17198" data-name="Path 17198" d="M604.417,235.484l-1.993,0V223.91a.483.483,0,0,0-.483-.483h-6.755V212.046a.483.483,0,0,0-.482-.483H582.156a.483.483,0,0,0-.483.483h0v23.442l-2.336,0a.483.483,0,0,0,0,.964l25.08-.007a.483.483,0,0,0,0-.964Zm-17.433,0h-1.93v-4.343a.483.483,0,0,1,.483-.483h.964a.483.483,0,0,1,.483.483Zm1.93-11.578v11.578h-.964v-4.343A1.447,1.447,0,0,0,586.5,229.7h-.966a1.447,1.447,0,0,0-1.447,1.447v4.342h-1.447v-22.96h11.58v10.894H589.4a.483.483,0,0,0-.483.483Zm12.545,11.578H589.878v-11.1h11.58Z" transform="translate(-576.877 -211.563)" fill="#2170b8"/>
      <path id="Path_17199" data-name="Path 17199" d="M683.22,230.489h-2.894a.483.483,0,0,0-.483.483v2.895a.483.483,0,0,0,.483.483h2.894a.483.483,0,0,0,.483-.483v-2.895A.483.483,0,0,0,683.22,230.489Zm-.483,2.895h-1.93v-1.93h1.93Z" transform="translate(-667.806 -228.277)" fill="#2170b8"/>
      <path id="Path_17201" data-name="Path 17201" d="M641.949,230.489h-2.895a.483.483,0,0,0-.483.483h0v2.895a.483.483,0,0,0,.483.483h2.895a.483.483,0,0,0,.483-.483h0v-2.895a.483.483,0,0,0-.483-.483Zm-.483,2.895h-1.93v-1.93h1.93Z" transform="translate(-631.36 -228.277)" fill="#2170b8"/>
      <path id="Path_17203" data-name="Path 17203" d="M641.949,271.761h-2.895a.483.483,0,0,0-.483.483v2.894a.483.483,0,0,0,.483.483h2.895a.483.483,0,0,0,.483-.483v-2.894A.483.483,0,0,0,641.949,271.761Zm-.483,2.895h-1.93v-1.93h1.93Z" transform="translate(-631.36 -264.724)" fill="#2170b8"/>
      <path id="Path_17203-2" data-name="Path 17203" d="M683.22,271.761h-2.894a.483.483,0,0,0-.483.483v2.894a.483.483,0,0,0,.483.483h2.894a.483.483,0,0,0,.483-.483v-2.894A.483.483,0,0,0,683.22,271.761Zm-.483,2.895h-1.93v-1.93h1.93Z" transform="translate(-667.806 -264.724)" fill="#2170b8"/>
      <path id="Path_17204" data-name="Path 17204" d="M641.949,317.157h-2.895a.483.483,0,0,0-.483.483h0v2.895a.483.483,0,0,0,.483.483h2.895a.483.483,0,0,0,.483-.483h0V317.64a.483.483,0,0,0-.483-.483Zm-.483,2.895h-1.93v-1.93h1.93Z" transform="translate(-631.36 -304.813)" fill="#2170b8"/>
      <path id="Path_17205" data-name="Path 17205" d="M742.239,337.528h2.895a.483.483,0,0,0,.483-.483h0v-2.895a.483.483,0,0,0-.483-.483h-2.895a.483.483,0,0,0-.483.483h0v2.895a.483.483,0,0,0,.483.483Zm.483-2.895h1.93v1.93h-1.93Z" transform="translate(-722.481 -319.394)" fill="#2170b8"/>
      <path id="Path_17207" data-name="Path 17207" d="M742.239,378.812h2.895a.483.483,0,0,0,.483-.483h0v-2.895a.483.483,0,0,0-.483-.483h-2.895a.483.483,0,0,0-.483.483h0v2.895a.483.483,0,0,0,.483.483Zm.483-2.895h1.93v1.93h-1.93Z" transform="translate(-722.481 -355.852)" fill="#2170b8"/>
      <path id="Path_17208" data-name="Path 17208" d="M700.968,337.528h2.895a.483.483,0,0,0,.483-.483h0v-2.895a.483.483,0,0,0-.483-.483h-2.895a.483.483,0,0,0-.483.483h0v2.895a.483.483,0,0,0,.483.483Zm.483-2.895h1.93v1.93h-1.93Z" transform="translate(-686.035 -319.394)" fill="#2170b8"/>
      <path id="Path_17210" data-name="Path 17210" d="M700.968,378.812h2.895a.483.483,0,0,0,.483-.483h0v-2.895a.483.483,0,0,0-.483-.483h-2.895a.483.483,0,0,0-.483.483h0v2.895a.483.483,0,0,0,.483.483Zm.483-2.895h1.93v1.93h-1.93Z" transform="translate(-686.035 -355.852)" fill="#2170b8"/>
    </g>
  </g>
</svg>
