<svg xmlns="http://www.w3.org/2000/svg" width="15.339" height="20.138" viewBox="0 0 15.339 20.138">
  <g id="google-docs" transform="translate(-61 0)">
    <path id="Path_17211" data-name="Path 17211" d="M76.167,4.893,71.447.173A.591.591,0,0,0,71.03,0H62.77A1.772,1.772,0,0,0,61,1.77v16.6a1.772,1.772,0,0,0,1.77,1.77h11.8a1.772,1.772,0,0,0,1.77-1.77V5.31A.6.6,0,0,0,76.167,4.893ZM71.62,2.014,74.325,4.72H72.21a.591.591,0,0,1-.59-.59Zm2.95,16.944H62.77a.591.591,0,0,1-.59-.59V1.77a.591.591,0,0,1,.59-.59h7.67V4.13A1.772,1.772,0,0,0,72.21,5.9h2.95V18.368A.591.591,0,0,1,74.57,18.958Z" fill="#2170b8"/>
    <path id="Path_17212" data-name="Path 17212" d="M158.67,212h-7.08a.59.59,0,1,0,0,1.18h7.08a.59.59,0,1,0,0-1.18Z" transform="translate(-86.46 -203.662)" fill="#2170b8"/>
    <path id="Path_17213" data-name="Path 17213" d="M158.67,272h-7.08a.59.59,0,1,0,0,1.18h7.08a.59.59,0,1,0,0-1.18Z" transform="translate(-86.46 -261.302)" fill="#2170b8"/>
    <path id="Path_17214" data-name="Path 17214" d="M158.67,332h-7.08a.59.59,0,0,0,0,1.18h7.08a.59.59,0,1,0,0-1.18Z" transform="translate(-86.46 -318.942)" fill="#2170b8"/>
    <path id="Path_17215" data-name="Path 17215" d="M156.31,392h-4.72a.59.59,0,0,0,0,1.18h4.72a.59.59,0,1,0,0-1.18Z" transform="translate(-86.46 -376.582)" fill="#2170b8"/>
  </g>
</svg>
