<svg xmlns="http://www.w3.org/2000/svg" width="28.423" height="18.861" viewBox="0 0 28.423 18.861">
  <path id="Path_17235" data-name="Path 17235" d="M784.2,239.524a2.16,2.16,0,0,0-.44-1.322l-2.223-2.848a2.073,2.073,0,0,0-1.625-.78h-.027a2.028,2.028,0,0,0-1.065.3l-2.161,1.345a1.8,1.8,0,0,1-.918.222,1.605,1.605,0,0,1-.685-.133l-2.127-1.03a2.808,2.808,0,0,0-1.178-.25,2.885,2.885,0,0,0-1.662.481l-.162.114-.759-.379a3.333,3.333,0,0,0-1.453-.3,3.5,3.5,0,0,0-1.34.247l-1.439.614a2.51,2.51,0,0,1-.925.156,2.483,2.483,0,0,1-.91-.153l-1.45-.618a2.154,2.154,0,0,0-.893-.174,2.675,2.675,0,0,0-1,.2,2.325,2.325,0,0,0-.859.592l-2.639,2.956a1.886,1.886,0,0,0,.147,2.663l2.359,2.011-1.036,1.084a1.912,1.912,0,0,0,.058,2.708l.237.226a1.921,1.921,0,0,0,.646.4,1.888,1.888,0,0,0,.448,2.107l.238.228a1.938,1.938,0,0,0,1.894.441,1.892,1.892,0,0,0,.478.745l.238.227a1.9,1.9,0,0,1,2.631.934l.238.227a1.94,1.94,0,0,0,2.719-.064l.913-.953,1.276,1.181a1.939,1.939,0,0,0,2.717-.1l.224-.242a1.9,1.9,0,0,0,.339-.52l.35.323a1.941,1.941,0,0,0,2.719-.1l.222-.239a1.9,1.9,0,0,1,2.164-1.454l.223-.239a1.9,1.9,0,0,0,.513-1.3,2.018,2.018,0,0,0-.018-.247,1.913,1.913,0,0,0,.973-.551l.223-.24a1.915,1.915,0,0,0-.076-2.685l-.32-.293,3.659-4.046A2.157,2.157,0,0,0,784.2,239.524Zm-10.638,5.221,4.147,3.845a.619.619,0,0,1,.032.873l-.221.237a.63.63,0,0,1-.878.033l-3.884-3.593-.887.95,3.461,3.2a.62.62,0,0,1,.026.863l-.222.238a.632.632,0,0,1-.88.033l-3.456-3.192-.766.824-.106.14,1.79,1.651a.608.608,0,0,1,.011.843l-.222.239a.629.629,0,0,1-.878.032l-1.351-1.256a1.894,1.894,0,0,0-.436-2.134l-.238-.227a1.914,1.914,0,0,0-1.283-.526,3.47,3.47,0,0,0-.564-1.228l-.237-.225a1.911,1.911,0,0,0-.78-.448,1.887,1.887,0,0,0-.538-1.836l-.239-.231a1.916,1.916,0,0,0-1.316-.527,1.9,1.9,0,0,0-.575-1.144l-.237-.226a1.94,1.94,0,0,0-2.719.064l-.45.47-2.374-2.02a.6.6,0,0,1-.057-.846l2.632-2.949a1.036,1.036,0,0,1,.382-.254,1.384,1.384,0,0,1,.517-.1.958.958,0,0,1,.38.071l1.453.62a4.069,4.069,0,0,0,2.848,0l1.441-.615a2.2,2.2,0,0,1,.836-.145,2.045,2.045,0,0,1,.87.166l.125.063-1.231.868a1.88,1.88,0,0,0-.465,2.616l.232.313a2.088,2.088,0,0,0,1.649.815h.019a2.025,2.025,0,0,0,1.036-.285l.876-.526a1.261,1.261,0,0,1,.653-.157,1.312,1.312,0,0,1,.757.211l2.439,1.749a24.136,24.136,0,0,1,1.9,1.553l2.825,2.611a.615.615,0,0,1,.194.409v.044a.605.605,0,0,1-.165.418l-.223.239a.631.631,0,0,1-.879.033l-3.887-3.594Zm-14.9.67,2.389-2.493a.63.63,0,0,1,.88-.022l.214.2a1.35,1.35,0,0,1,.213.472.616.616,0,0,1-.093.328l-2.554,2.666a.628.628,0,0,1-.362.116h0a.615.615,0,0,1-.424-.168l-.236-.226a.618.618,0,0,1-.022-.872Zm1.328,2.731c1.192-1.24,3.194-3.325,3.206-3.342a.623.623,0,0,1,.858-.006l.237.227a.619.619,0,0,1,.021.873l-3.186,3.324a.631.631,0,0,1-.879.021l-.236-.225A.621.621,0,0,1,759.992,248.146Zm2.571,1.459,2.212-2.307a.625.625,0,0,1,.843.008l.237.226a.62.62,0,0,1,.015.876l-2.128,2.221a.629.629,0,0,1-.878.021l-.238-.225A.614.614,0,0,1,762.564,249.6Zm2.912,1.11,1.344-1.4a.631.631,0,0,1,.881-.021l.237.224a.62.62,0,0,1,.06.827l-1.386,1.449a.63.63,0,0,1-.879.022l-.236-.225A.618.618,0,0,1,765.476,250.715Zm17.234-10.628-3.666,4.054-1.581-1.462a25.5,25.5,0,0,0-2.025-1.653l-2.445-1.753a2.623,2.623,0,0,0-1.474-.453h-.043a2.594,2.594,0,0,0-1.318.342l-.881.528a.7.7,0,0,1-.374.1.812.812,0,0,1-.615-.291l-.2-.262a.588.588,0,0,1,.134-.83l2.6-1.827a1.651,1.651,0,0,1,.92-.249,1.436,1.436,0,0,1,.611.12l2.131,1.026a2.983,2.983,0,0,0,1.251.262,3.091,3.091,0,0,0,1.6-.414l2.168-1.349a.744.744,0,0,1,.39-.106.811.811,0,0,1,.614.282l2.218,2.842a.87.87,0,0,1,.169.534A.879.879,0,0,1,782.71,240.087Z" transform="translate(-755.776 -234.575)" fill="#2170b8"/>
</svg>
