<svg xmlns="http://www.w3.org/2000/svg" width="12.258" height="12.284" viewBox="0 0 12.258 12.284">
  <g id="edit" transform="translate(-5.6 -6.9)">
    <g id="Group_2466" data-name="Group 2466" transform="translate(5.6 6.9)">
      <path id="Path_8591" data-name="Path 8591" d="M5.613,16.113,5.6,18.639a.549.549,0,0,0,.155.389.519.519,0,0,0,.376.155l2.514-.013a.519.519,0,0,0,.376-.155L17.7,10.334a.548.548,0,0,0,0-.764L15.214,7.055a.548.548,0,0,0-.764,0L12.714,8.8,5.768,15.737a.577.577,0,0,0-.155.376ZM14.839,8.2l1.749,1.749-.985.985L13.854,9.18Zm-8.15,8.15,6.4-6.4,1.749,1.749-6.4,6.388L6.675,18.1Z" transform="translate(-5.6 -6.9)"/>
    </g>
  </g>
</svg>
