<svg id="parking-4" xmlns="http://www.w3.org/2000/svg" width="26.976" height="26.976" viewBox="0 0 26.976 26.976">
  <g id="Group_3782" data-name="Group 3782" transform="translate(10.011 6.545)">
    <g id="Group_3781" data-name="Group 3781">
      <path id="Path_17257" data-name="Path 17257" d="M194.824,124.23H190v13.885h1.581v-4.4h3.242a4.666,4.666,0,0,0,4.661-4.661v-.162A4.666,4.666,0,0,0,194.824,124.23Zm3.08,4.823a3.084,3.084,0,0,1-3.08,3.08h-3.242v-6.323h3.242a3.084,3.084,0,0,1,3.08,3.08Z" transform="translate(-190.001 -124.23)" fill="#2170b8"/>
    </g>
  </g>
  <g id="Group_3784" data-name="Group 3784">
    <g id="Group_3783" data-name="Group 3783">
      <path id="Path_17258" data-name="Path 17258" d="M23.026,3.951A13.488,13.488,0,1,0,3.951,23.026,13.488,13.488,0,0,0,23.026,3.951ZM21.908,21.908A11.907,11.907,0,0,1,5.068,5.068a11.907,11.907,0,0,1,16.84,16.84Z" fill="#2170b8"/>
    </g>
  </g>
</svg>
