<svg xmlns="http://www.w3.org/2000/svg" width="24.036" height="30.485" viewBox="0 0 24.036 30.485">
  <g id="badge" transform="translate(-54.154)">
    <g id="Group_5968" data-name="Group 5968" transform="translate(54.154)">
      <g id="Group_5967" data-name="Group 5967" transform="translate(0)">
        <path id="Path_17547" data-name="Path 17547" d="M66.172,0A12.015,12.015,0,0,0,59.43,21.962v7.643a.879.879,0,0,0,1.24.8l5.5-2.476,5.5,2.476a.879.879,0,0,0,1.24-.8V21.962A12.015,12.015,0,0,0,66.172,0Zm4.983,28.246-4.622-2.08a.879.879,0,0,0-.722,0l-4.622,2.08V22.956a11.958,11.958,0,0,0,1.358.521l.079.025.177.053.132.038.144.039.168.044.119.029.195.045.1.022.215.044.088.017.229.04.079.013.238.035.074.01.242.029.072.008.243.023.074.007.241.016.078,0c.081,0,.163.007.245.01l.074,0q.159,0,.318,0t.318,0l.074,0,.245-.01.078,0c.081,0,.161-.01.241-.016l.074-.007.243-.023.072-.008.242-.029.074-.01.238-.035.079-.013.229-.04.088-.017.215-.044.1-.022.195-.045.119-.029.168-.044.144-.039.132-.038.177-.053.079-.025a11.958,11.958,0,0,0,1.358-.521v5.289Zm-1.635-6.53-.105.036-.161.052-.189.057-.134.039q-.125.035-.251.067l-.094.023q-.123.03-.248.057l-.062.014q-.16.033-.322.062l-.033.006q-.145.025-.292.046l-.066.009c-.1.014-.208.027-.312.038H67.24q-.164.017-.329.029l-.072,0q-.128.008-.257.013l-.087,0c-.108,0-.215.006-.323.006s-.216,0-.323-.006l-.087,0q-.129-.005-.257-.013l-.072,0q-.165-.012-.329-.029h-.012c-.1-.011-.209-.024-.312-.038l-.066-.009q-.146-.021-.292-.046l-.033-.006q-.161-.028-.322-.062l-.062-.014q-.124-.027-.248-.057l-.094-.023q-.126-.032-.251-.067l-.134-.039L63.09,21.8l-.161-.052-.105-.036a10.259,10.259,0,1,1,6.7,0Z" transform="translate(-54.154)" fill="#2170b8"/>
      </g>
    </g>
    <g id="Group_5970" data-name="Group 5970" transform="translate(59.2 4.104)">
      <g id="Group_5969" data-name="Group 5969" transform="translate(0)">
        <path id="Path_17548" data-name="Path 17548" d="M151.1,76.838l1.652-3.1A.879.879,0,0,0,152,72.442l-3.514-.122-1.863-2.983a.879.879,0,0,0-1.492,0L143.27,72.32l-3.514.122a.879.879,0,0,0-.746,1.292l1.652,3.1-1.652,3.1a.879.879,0,0,0,.746,1.292l3.514.122,1.863,2.983a.879.879,0,0,0,1.492,0l1.863-2.983L152,81.235a.879.879,0,0,0,.746-1.292Zm-3.137,2.777a.879.879,0,0,0-.715.413l-1.365,2.185-1.365-2.185a.879.879,0,0,0-.715-.413l-2.575-.089,1.21-2.274a.879.879,0,0,0,0-.826l-1.21-2.274,2.575-.089a.879.879,0,0,0,.715-.413l1.365-2.185,1.365,2.185a.88.88,0,0,0,.715.413l2.575.089-1.21,2.274a.879.879,0,0,0,0,.826l1.21,2.274Z" transform="translate(-138.907 -68.924)" fill="#2170b8"/>
      </g>
    </g>
  </g>
</svg>
