<svg xmlns="http://www.w3.org/2000/svg" width="27.665" height="21.415" viewBox="0 0 27.665 21.415">
  <g id="Group_3756" data-name="Group 3756" transform="translate(1.5 -95.656)">
    <path id="Path_17226" data-name="Path 17226" d="M24.7,95.656H4.573A1.47,1.47,0,0,0,3.1,97.125v2.027H-.031A1.471,1.471,0,0,0-1.5,100.621v13.665a2.793,2.793,0,0,0,2.766,2.785H15.538a.483.483,0,1,0,0-.967H3.394a2.765,2.765,0,0,0,.677-1.819v-9.422a.483.483,0,0,0-.967,0v9.422A1.823,1.823,0,0,1,1.3,116.1h-.01a1.821,1.821,0,0,1-1.819-1.818V100.621a.5.5,0,0,1,.5-.5H3.1v3.241a.483.483,0,0,0,.967,0V97.125a.5.5,0,0,1,.5-.5H24.7a.5.5,0,0,1,.5.5v17.161a1.821,1.821,0,0,1-1.819,1.819H17.042a.483.483,0,1,0,0,.967h6.337a2.789,2.789,0,0,0,2.786-2.786V97.125A1.471,1.471,0,0,0,24.7,95.656Z" transform="translate(0)" fill="#2170b8"/>
    <path id="Path_17227" data-name="Path 17227" d="M153.977,276.064v4.817a.913.913,0,0,0,.912.912h4.817a.913.913,0,0,0,.912-.912v-4.817a.913.913,0,0,0-.912-.912h-4.817A.913.913,0,0,0,153.977,276.064Zm.864,4.817v-4.817a.048.048,0,0,1,.048-.048h4.817a.048.048,0,0,1,.048.048v4.817a.048.048,0,0,1-.048.048h-4.817A.048.048,0,0,1,154.841,280.881Z" transform="translate(-147.125 -169.854)" fill="#2170b8"/>
    <path id="Path_17228" data-name="Path 17228" d="M303.191,303.569a.484.484,0,0,0,.483.483h7.478a.483.483,0,0,0,0-.967h-7.478A.484.484,0,0,0,303.191,303.569Z" transform="translate(-288.323 -196.287)" fill="#2170b8"/>
    <path id="Path_17229" data-name="Path 17229" d="M311.152,364.762h-7.478a.483.483,0,0,0,0,.967h7.478a.483.483,0,0,0,0-.967Z" transform="translate(-288.323 -254.65)" fill="#2170b8"/>
    <path id="Path_17230" data-name="Path 17230" d="M145.557,427.4h15.971a.483.483,0,0,0,0-.967H145.557a.483.483,0,1,0,0,.967Z" transform="translate(-138.7 -313.013)" fill="#2170b8"/>
    <path id="Path_17231" data-name="Path 17231" d="M148.441,149.755a.805.805,0,0,0-.679,0,.291.291,0,0,0-.168.268v2.306l-1.114-2.154a1.123,1.123,0,0,0-.3-.4.708.708,0,0,0-.406-.1.7.7,0,0,0-.341.079.3.3,0,0,0-.166.271v4.257a.3.3,0,0,0,.165.266.74.74,0,0,0,.68,0,.3.3,0,0,0,.169-.267v-2.316l1.259,2.354a.589.589,0,0,0,.563.312.677.677,0,0,0,.338-.083.3.3,0,0,0,.169-.267v-4.264A.291.291,0,0,0,148.441,149.755Z" transform="translate(-138.882 -51.122)" fill="#2170b8"/>
    <path id="Path_17232" data-name="Path 17232" d="M221.935,150.589a.3.3,0,0,0,.265-.148.566.566,0,0,0,.085-.313.558.558,0,0,0-.081-.3.3.3,0,0,0-.269-.15H219.6a.553.553,0,0,0-.306.085.3.3,0,0,0-.148.264v4.257a.3.3,0,0,0,.148.265.553.553,0,0,0,.306.085h2.335a.3.3,0,0,0,.268-.15.558.558,0,0,0,.081-.3.567.567,0,0,0-.085-.313.3.3,0,0,0-.264-.148h-1.776V152.57h.917a.308.308,0,0,0,.267-.137.477.477,0,0,0,.083-.272.484.484,0,0,0-.087-.286.311.311,0,0,0-.262-.136h-.917v-1.151Z" transform="translate(-208.792 -51.122)" fill="#2170b8"/>
    <path id="Path_17233" data-name="Path 17233" d="M288.141,149.792a.811.811,0,0,0-.407-.112c-.246,0-.332.125-.36.229l-.952,3.267-.486-1.991c-.034-.136-.147-.3-.492-.3s-.464.162-.5.3l-.486,1.99-.952-3.265c-.028-.105-.113-.23-.36-.23a.81.81,0,0,0-.407.112.362.362,0,0,0-.218.309.323.323,0,0,0,.017.1l1.3,4.124a.419.419,0,0,0,.239.264.907.907,0,0,0,.4.084.891.891,0,0,0,.389-.083.4.4,0,0,0,.234-.267l.347-1.443.342,1.443a.4.4,0,0,0,.234.267.891.891,0,0,0,.389.084c.343,0,.556-.116.634-.345l1.3-4.125a.331.331,0,0,0,.017-.1A.362.362,0,0,0,288.141,149.792Z" transform="translate(-268.766 -51.122)" fill="#2170b8"/>
    <path id="Path_17234" data-name="Path 17234" d="M394.229,153.075a.83.83,0,0,1-.479.13.976.976,0,0,1-.388-.075.892.892,0,0,1-.268-.165,2.321,2.321,0,0,0-.217-.187.407.407,0,0,0-.242-.1.4.4,0,0,0-.324.186.591.591,0,0,0-.131.353c0,.232.164.443.487.627a2.2,2.2,0,0,0,1.109.267,1.773,1.773,0,0,0,1.184-.385,1.371,1.371,0,0,0,.458-1.1,1.565,1.565,0,0,0-.167-.736,1.31,1.31,0,0,0-.416-.485,4.421,4.421,0,0,0-.515-.3c-.184-.091-.356-.167-.512-.226a1.159,1.159,0,0,1-.365-.214.359.359,0,0,1,.028-.576.879.879,0,0,1,.5-.12,1.27,1.27,0,0,1,.549.117,1.017,1.017,0,0,0,.356.132.358.358,0,0,0,.319-.2.679.679,0,0,0,.1-.343.424.424,0,0,0-.163-.331.932.932,0,0,0-.38-.185,3.434,3.434,0,0,0-.413-.079,3.039,3.039,0,0,0-.371-.024,2.351,2.351,0,0,0-.591.073,1.853,1.853,0,0,0-.528.23,1.157,1.157,0,0,0-.405.45,1.517,1.517,0,0,0-.028,1.255,1.146,1.146,0,0,0,.325.423,2.708,2.708,0,0,0,.426.274c.153.08.306.152.455.216s.281.127.4.193a.837.837,0,0,1,.276.233.489.489,0,0,1,.1.3A.4.4,0,0,1,394.229,153.075Z" transform="translate(-372.532 -50.541)" fill="#2170b8"/>
  </g>
</svg>
