<svg xmlns="http://www.w3.org/2000/svg" xmlns:xlink="http://www.w3.org/1999/xlink" width="16.004" height="16.019" viewBox="0 0 16.004 16.019">
  <defs>
    <clipPath id="clip-path">
      <rect width="16.004" height="16.019" fill="none"/>
    </clipPath>
  </defs>
  <g id="Repeat_Grid_7" data-name="Repeat Grid 7" clip-path="url(#clip-path)">
    <g transform="translate(-23.146 -70.157)">
      <path id="push-pin" d="M.033,6.234a.293.293,0,0,1,.178-.213,7.152,7.152,0,0,1,5.375.084L9.942,2.4a3.273,3.273,0,0,1,.6-2.292A.294.294,0,0,1,10.755,0a.3.3,0,0,1,.223.085l4.465,4.465a.293.293,0,0,1-.025.436,3.322,3.322,0,0,1-2.262.6L9.433,9.966a7.674,7.674,0,0,1,.09,5.368.293.293,0,0,1-.479.1L4.779,11.167.807,15.14a.293.293,0,0,1-.414-.414l3.972-3.972L.113,6.5A.294.294,0,0,1,.033,6.234ZM5.2,10.759l3.93,3.93a7.428,7.428,0,0,0-.3-4.657.293.293,0,0,1,.044-.31l3.94-4.632a.294.294,0,0,1,.224-.1.26.26,0,0,1,.045,0,3.029,3.029,0,0,0,1.7-.28L10.825.76a2.746,2.746,0,0,0-.282,1.712.292.292,0,0,1-.1.27L5.823,6.674a.3.3,0,0,1-.323.037,6.688,6.688,0,0,0-4.645-.3Z" transform="translate(23.37 70.407)" fill="#2170b8" stroke="#2170b8" stroke-width="0.5"/>
    </g>
  </g>
</svg>
