<svg xmlns="http://www.w3.org/2000/svg" width="26.5" height="26.5" viewBox="0 0 26.5 26.5">
  <g id="calendar-2" transform="translate(0.25 0.25)">
    <g id="Group_2903" data-name="Group 2903">
      <g id="Group_2902" data-name="Group 2902">
        <path id="Path_16899" data-name="Path 16899" d="M22.953,2.031H21.734V0H19.7V2.031H6.3V0H4.266V2.031H3.047A3.05,3.05,0,0,0,0,5.078V22.953A3.05,3.05,0,0,0,3.047,26H22.953A3.05,3.05,0,0,0,26,22.953V5.078A3.05,3.05,0,0,0,22.953,2.031Zm1.016,20.922a1.017,1.017,0,0,1-1.016,1.016H3.047a1.017,1.017,0,0,1-1.016-1.016V9.547H23.969Zm0-15.437H2.031V5.078A1.017,1.017,0,0,1,3.047,4.063H4.266V6.094H6.3V4.063H19.7V6.094h2.031V4.063h1.219a1.017,1.017,0,0,1,1.016,1.016Z" fill="#2170b8" stroke="#fff" stroke-width="0.5"/>
      </g>
    </g>
    <g id="Group_2905" data-name="Group 2905" transform="translate(3.859 11.68)">
      <g id="Group_2904" data-name="Group 2904">
        <rect id="Rectangle_1677" data-name="Rectangle 1677" width="2" height="2" transform="translate(0.141 0.32)" fill="#2170b8" stroke="#fff" stroke-width="0.5"/>
      </g>
    </g>
    <g id="Group_2907" data-name="Group 2907" transform="translate(7.922 11.68)">
      <g id="Group_2906" data-name="Group 2906">
        <rect id="Rectangle_1678" data-name="Rectangle 1678" width="2" height="2" transform="translate(0.078 0.32)" fill="#2170b8" stroke="#fff" stroke-width="0.5"/>
      </g>
    </g>
    <g id="Group_2909" data-name="Group 2909" transform="translate(11.984 11.68)">
      <g id="Group_2908" data-name="Group 2908">
        <rect id="Rectangle_1679" data-name="Rectangle 1679" width="2" height="2" transform="translate(0.016 0.32)" fill="#2170b8" stroke="#fff" stroke-width="0.5"/>
      </g>
    </g>
    <g id="Group_2911" data-name="Group 2911" transform="translate(16.047 11.68)">
      <g id="Group_2910" data-name="Group 2910">
        <rect id="Rectangle_1680" data-name="Rectangle 1680" width="2" height="2" transform="translate(-0.047 0.32)" fill="#2170b8" stroke="#fff" stroke-width="0.5"/>
      </g>
    </g>
    <g id="Group_2913" data-name="Group 2913" transform="translate(20.109 11.68)">
      <g id="Group_2912" data-name="Group 2912">
        <rect id="Rectangle_1681" data-name="Rectangle 1681" width="2" height="2" transform="translate(-0.109 0.32)" fill="#2170b8" stroke="#fff" stroke-width="0.5"/>
      </g>
    </g>
    <g id="Group_2915" data-name="Group 2915" transform="translate(3.859 15.742)">
      <g id="Group_2914" data-name="Group 2914">
        <rect id="Rectangle_1682" data-name="Rectangle 1682" width="2" height="2" transform="translate(0.141 0.258)" fill="#2170b8" stroke="#fff" stroke-width="0.5"/>
      </g>
    </g>
    <g id="Group_2917" data-name="Group 2917" transform="translate(7.922 15.742)">
      <g id="Group_2916" data-name="Group 2916">
        <rect id="Rectangle_1683" data-name="Rectangle 1683" width="2" height="2" transform="translate(0.078 0.258)" fill="#2170b8" stroke="#fff" stroke-width="0.5"/>
      </g>
    </g>
    <g id="Group_2919" data-name="Group 2919" transform="translate(11.984 15.742)">
      <g id="Group_2918" data-name="Group 2918">
        <rect id="Rectangle_1684" data-name="Rectangle 1684" width="2" height="2" transform="translate(0.016 0.258)" fill="#2170b8" stroke="#fff" stroke-width="0.5"/>
      </g>
    </g>
    <g id="Group_2921" data-name="Group 2921" transform="translate(16.047 15.742)">
      <g id="Group_2920" data-name="Group 2920">
        <rect id="Rectangle_1685" data-name="Rectangle 1685" width="2" height="2" transform="translate(-0.047 0.258)" fill="#2170b8" stroke="#fff" stroke-width="0.5"/>
      </g>
    </g>
    <g id="Group_2923" data-name="Group 2923" transform="translate(3.859 19.805)">
      <g id="Group_2922" data-name="Group 2922">
        <rect id="Rectangle_1686" data-name="Rectangle 1686" width="2" height="2" transform="translate(0.141 0.195)" fill="#2170b8" stroke="#fff" stroke-width="0.5"/>
      </g>
    </g>
    <g id="Group_2925" data-name="Group 2925" transform="translate(7.922 19.805)">
      <g id="Group_2924" data-name="Group 2924">
        <rect id="Rectangle_1687" data-name="Rectangle 1687" width="2" height="2" transform="translate(0.078 0.195)" fill="#2170b8" stroke="#fff" stroke-width="0.5"/>
      </g>
    </g>
    <g id="Group_2927" data-name="Group 2927" transform="translate(11.984 19.805)">
      <g id="Group_2926" data-name="Group 2926">
        <rect id="Rectangle_1688" data-name="Rectangle 1688" width="2" height="2" transform="translate(0.016 0.195)" fill="#2170b8" stroke="#fff" stroke-width="0.5"/>
      </g>
    </g>
    <g id="Group_2929" data-name="Group 2929" transform="translate(16.047 19.805)">
      <g id="Group_2928" data-name="Group 2928">
        <rect id="Rectangle_1689" data-name="Rectangle 1689" width="2" height="2" transform="translate(-0.047 0.195)" fill="#2170b8" stroke="#fff" stroke-width="0.5"/>
      </g>
    </g>
    <g id="Group_2931" data-name="Group 2931" transform="translate(20.109 15.742)">
      <g id="Group_2930" data-name="Group 2930">
        <rect id="Rectangle_1690" data-name="Rectangle 1690" width="2" height="2" transform="translate(-0.109 0.258)" fill="#2170b8" stroke="#fff" stroke-width="0.5"/>
      </g>
    </g>
  </g>
</svg>
