<svg xmlns="http://www.w3.org/2000/svg" width="20.571" height="18.833" viewBox="0 0 20.571 18.833">
  <g id="down-arrow-2" transform="translate(-17.067 -2.997)">
    <g id="Group_2941" data-name="Group 2941" transform="translate(17.067 6.798)">
      <g id="Group_2940" data-name="Group 2940" transform="translate(0)">
        <path id="Path_16905" data-name="Path 16905" d="M35.264,153.6H31.308a.791.791,0,1,0,0,1.582h3.956a.791.791,0,0,1,.791.791v10.286a.791.791,0,0,1-.791.791H19.441a.791.791,0,0,1-.791-.791V155.974a.791.791,0,0,1,.791-.791H23.4a.791.791,0,1,0,0-1.582H19.441a2.374,2.374,0,0,0-2.374,2.374v10.286a2.374,2.374,0,0,0,2.374,2.374H35.264a2.374,2.374,0,0,0,2.374-2.374V155.974A2.374,2.374,0,0,0,35.264,153.6Z" transform="translate(-17.067 -153.6)" fill="#fbad26"/>
      </g>
    </g>
    <g id="Group_2943" data-name="Group 2943" transform="translate(22.615 2.997)">
      <g id="Group_2942" data-name="Group 2942">
        <path id="Path_16906" data-name="Path 16906" d="M145.977,10.986a.791.791,0,0,0-1.1,0l-2.607,2.605v-9.8a.791.791,0,1,0-1.582,0v9.8l-2.605-2.605a.791.791,0,0,0-1.119,1.119l3.956,3.956a.791.791,0,0,0,1.119,0h0L146,12.1A.791.791,0,0,0,145.977,10.986Z" transform="translate(-136.742 -2.997)" fill="#fbad26"/>
      </g>
    </g>
  </g>
</svg>
