<svg xmlns="http://www.w3.org/2000/svg" width="18.637" height="18" viewBox="0 0 18.637 18">
  <g id="user-4" transform="translate(-17.44 -2)">
    <g id="Group_3744" data-name="Group 3744" transform="translate(17.44 11.265)">
      <g id="Group_3743" data-name="Group 3743" transform="translate(0)">
        <path id="Path_17220" data-name="Path 17220" d="M26.759,288.389c-6.009,0-9.319,2.843-9.319,8a.73.73,0,0,0,.73.73H35.348a.73.73,0,0,0,.73-.73C36.077,291.232,32.768,288.389,26.759,288.389Zm-7.832,7.275c.287-3.86,2.918-5.815,7.832-5.815s7.545,1.955,7.833,5.815Z" transform="translate(-17.44 -288.389)" fill="#2170b8"/>
      </g>
    </g>
    <g id="Group_3746" data-name="Group 3746" transform="translate(21.917 2)">
      <g id="Group_3745" data-name="Group 3745">
        <path id="Path_17221" data-name="Path 17221" d="M136.891,0a4.784,4.784,0,0,0-4.842,4.939,4.858,4.858,0,1,0,9.684,0A4.784,4.784,0,0,0,136.891,0Zm0,8.735a3.611,3.611,0,0,1-3.382-3.8,3.319,3.319,0,0,1,3.382-3.479,3.356,3.356,0,0,1,3.382,3.479A3.611,3.611,0,0,1,136.891,8.735Z" transform="translate(-132.049)" fill="#2170b8"/>
      </g>
    </g>
  </g>
</svg>
