<svg xmlns="http://www.w3.org/2000/svg" width="15.194" height="16.34" viewBox="0 0 15.194 16.34">
  <g id="trash_1_" data-name="trash (1)" transform="translate(0.15 0.15)">
    <g id="Group_7827" data-name="Group 7827">
      <g id="Group_7826" data-name="Group 7826" transform="translate(0)">
        <path id="Path_18304" data-name="Path 18304" d="M31.387,2.291h-4.01V1.719A1.719,1.719,0,0,0,25.659,0H23.367a1.719,1.719,0,0,0-1.719,1.719v.573h-4.01a.573.573,0,1,0,0,1.146h.623l1.1,12.082a.573.573,0,0,0,.573.521H29.1a.573.573,0,0,0,.573-.521l1.1-12.082h.623a.573.573,0,1,0,0-1.146Zm-8.593-.573a.573.573,0,0,1,.573-.573h2.291a.573.573,0,0,1,.573.573v.573H22.794V1.719Zm5.778,13.175H20.453L19.415,3.437h10.2Z" transform="translate(-17.066)" fill="#2170b8" stroke="#fff" stroke-width="0.3"/>
      </g>
    </g>
    <g id="Group_7829" data-name="Group 7829" transform="translate(4.008 4.581)">
      <g id="Group_7828" data-name="Group 7828" transform="translate(0)">
        <path id="Path_18305" data-name="Path 18305" d="M138.21,145.046v0l-.573-8.02a.574.574,0,1,0-1.146.081l.573,8.02a.573.573,0,0,0,.573.532h.041A.573.573,0,0,0,138.21,145.046Z" transform="translate(-136.489 -136.49)" fill="#2170b8" stroke="#fff" stroke-width="0.3"/>
      </g>
    </g>
    <g id="Group_7831" data-name="Group 7831" transform="translate(6.874 4.583)">
      <g id="Group_7830" data-name="Group 7830" transform="translate(0)">
        <path id="Path_18306" data-name="Path 18306" d="M222.439,136.533a.573.573,0,0,0-.573.573v8.02a.573.573,0,0,0,1.146,0v-8.02A.573.573,0,0,0,222.439,136.533Z" transform="translate(-221.866 -136.533)" fill="#2170b8" stroke="#fff" stroke-width="0.3"/>
      </g>
    </g>
    <g id="Group_7833" data-name="Group 7833" transform="translate(9.164 4.581)">
      <g id="Group_7832" data-name="Group 7832">
        <path id="Path_18307" data-name="Path 18307" d="M291.274,136.491a.574.574,0,0,0-.613.532l-.573,8.02a.573.573,0,0,0,.529.613h.044a.573.573,0,0,0,.573-.532l.573-8.02A.574.574,0,0,0,291.274,136.491Z" transform="translate(-290.086 -136.489)" fill="#2170b8" stroke="#fff" stroke-width="0.3"/>
      </g>
    </g>
  </g>
</svg>
