<svg xmlns="http://www.w3.org/2000/svg" xmlns:xlink="http://www.w3.org/1999/xlink" width="35.429" height="33.062" viewBox="0 0 35.429 33.062">
  <defs>
    <filter id="Path_18152" x="0" y="9.229" width="14.359" height="22.896" filterUnits="userSpaceOnUse">
      <feOffset input="SourceAlpha"/>
      <feGaussianBlur stdDeviation="1.5" result="blur"/>
      <feFlood flood-opacity="0.361"/>
      <feComposite operator="in" in2="blur"/>
      <feComposite in="SourceGraphic"/>
    </filter>
    <filter id="Path_18153" x="7.292" y="0" width="28.137" height="33.062" filterUnits="userSpaceOnUse">
      <feOffset input="SourceAlpha"/>
      <feGaussianBlur stdDeviation="1.5" result="blur-2"/>
      <feFlood flood-opacity="0.557"/>
      <feComposite operator="in" in2="blur-2"/>
      <feComposite in="SourceGraphic"/>
    </filter>
  </defs>
  <g id="like-6" transform="translate(5 5)">
    <g id="Group_7501" data-name="Group 7501" transform="translate(0 9.229)">
      <g id="Group_7500" data-name="Group 7500" transform="translate(0)">
        <g transform="matrix(1, 0, 0, 1, -5, -14.23)" filter="url(#Path_18152)">
          <path id="Path_18152-2" data-name="Path 18152" d="M34.189,241.468H31.283a.722.722,0,0,0-.727.716v11.463a.722.722,0,0,0,.727.716h2.906a.722.722,0,0,0,.727-.716V242.184A.721.721,0,0,0,34.189,241.468Z" transform="translate(-25.56 -227.24)" fill="#fff" stroke="#fff" stroke-width="1"/>
        </g>
      </g>
    </g>
    <g id="Group_7503" data-name="Group 7503" transform="translate(7.292)">
      <g id="Group_7502" data-name="Group 7502">
        <g transform="matrix(1, 0, 0, 1, -12.29, -5)" filter="url(#Path_18153)">
          <path id="Path_18153-2" data-name="Path 18153" d="M168.9,101.592a2.59,2.59,0,0,0-2.625-2.183h-6.421a14.222,14.222,0,0,0,.826-4.87,3.43,3.43,0,0,0-3.438-3.366h-.68a.823.823,0,0,0-.824.824c0,1.9-.742,5.342-2.14,6.741a9.124,9.124,0,0,1-2.8,1.81v12.359a19.24,19.24,0,0,0,6.794,1.329h5.388a2.5,2.5,0,0,0,2.47-3.381,2.472,2.472,0,0,0,1.647-3.295,2.472,2.472,0,0,0,1.19-4.031A2.466,2.466,0,0,0,168.9,101.592Z" transform="translate(-138.5 -86.17)" fill="#fff" stroke="#fff" stroke-linecap="round" stroke-linejoin="round" stroke-width="1"/>
        </g>
      </g>
    </g>
  </g>
</svg>
