<svg xmlns="http://www.w3.org/2000/svg" width="29.598" height="25.966" viewBox="0 0 29.598 25.966">
  <g id="Table" transform="translate(-0.75 -5.75)">
    <path id="Path_17538" data-name="Path 17538" d="M24.408,10.755H30.04a1.408,1.408,0,0,0,1.408-1.408V8.408A1.408,1.408,0,0,0,30.04,7H24.408A1.408,1.408,0,0,0,23,8.408v.939A1.408,1.408,0,0,0,24.408,10.755Zm-.469-2.347a.469.469,0,0,1,.469-.469H30.04a.469.469,0,0,1,.469.469v.939a.469.469,0,0,1-.469.469H24.408a.469.469,0,0,1-.469-.469Z" transform="translate(-11.675 -1)" fill="#2170b8" stroke="#2170b8" stroke-width="0.5"/>
    <path id="Path_17539" data-name="Path 17539" d="M3.408,10.755H9.04a1.408,1.408,0,0,0,1.408-1.408V8.408A1.408,1.408,0,0,0,9.04,7H3.408A1.408,1.408,0,0,0,2,8.408v.939A1.408,1.408,0,0,0,3.408,10.755ZM2.939,8.408a.469.469,0,0,1,.469-.469H9.04a.469.469,0,0,1,.469.469v.939a.469.469,0,0,1-.469.469H3.408a.469.469,0,0,1-.469-.469Z" transform="translate(-0.531 -1)" fill="#2170b8" stroke="#2170b8" stroke-width="0.5"/>
    <path id="Path_17540" data-name="Path 17540" d="M45.408,10.755H51.04a1.408,1.408,0,0,0,1.408-1.408V8.408A1.408,1.408,0,0,0,51.04,7H45.408A1.408,1.408,0,0,0,44,8.408v.939A1.408,1.408,0,0,0,45.408,10.755Zm-.469-2.347a.469.469,0,0,1,.469-.469H51.04a.469.469,0,0,1,.469.469v.939a.469.469,0,0,1-.469.469H45.408a.469.469,0,0,1-.469-.469Z" transform="translate(-22.819 -1)" fill="#2170b8" stroke="#2170b8" stroke-width="0.5"/>
    <path id="Path_17541" data-name="Path 17541" d="M30.04,49H24.408A1.408,1.408,0,0,0,23,50.408v.939a1.408,1.408,0,0,0,1.408,1.408H30.04a1.408,1.408,0,0,0,1.408-1.408v-.939A1.408,1.408,0,0,0,30.04,49Zm.469,2.347a.469.469,0,0,1-.469.469H24.408a.469.469,0,0,1-.469-.469v-.939a.469.469,0,0,1,.469-.469H30.04a.469.469,0,0,1,.469.469Z" transform="translate(-11.675 -21.288)" fill="#2170b8" stroke="#2170b8" stroke-width="0.5"/>
    <path id="Path_17542" data-name="Path 17542" d="M9.04,49H3.408A1.408,1.408,0,0,0,2,50.408v.939a1.408,1.408,0,0,0,1.408,1.408H9.04a1.408,1.408,0,0,0,1.408-1.408v-.939A1.408,1.408,0,0,0,9.04,49Zm.469,2.347a.469.469,0,0,1-.469.469H3.408a.469.469,0,0,1-.469-.469v-.939a.469.469,0,0,1,.469-.469H9.04a.469.469,0,0,1,.469.469Z" transform="translate(-0.531 -21.288)" fill="#2170b8" stroke="#2170b8" stroke-width="0.5"/>
    <path id="Path_17543" data-name="Path 17543" d="M51.04,49H45.408A1.408,1.408,0,0,0,44,50.408v.939a1.408,1.408,0,0,0,1.408,1.408H51.04a1.408,1.408,0,0,0,1.408-1.408v-.939A1.408,1.408,0,0,0,51.04,49Zm.469,2.347a.469.469,0,0,1-.469.469H45.408a.469.469,0,0,1-.469-.469v-.939a.469.469,0,0,1,.469-.469H51.04a.469.469,0,0,1,.469.469Z" transform="translate(-22.819 -21.288)" fill="#2170b8" stroke="#2170b8" stroke-width="0.5"/>
    <path id="Path_17544" data-name="Path 17544" d="M29.629,17H1.469A.469.469,0,0,0,1,17.469V30.61a.469.469,0,0,0,.469.469h28.16a.469.469,0,0,0,.469-.469V17.469A.469.469,0,0,0,29.629,17ZM29.16,30.141H1.939v-12.2H29.16Z" transform="translate(0 -5.307)" fill="#2170b8" stroke="#2170b8" stroke-width="0.5"/>
    <path id="Path_17545" data-name="Path 17545" d="M5.469,41.939H8.285a.469.469,0,1,0,0-.939H5.469a.469.469,0,0,0,0,.939Z" transform="translate(-1.123 -19.043)" fill="#2170b8" stroke="#2170b8" stroke-width="0.5"/>
    <path id="Path_17546" data-name="Path 17546" d="M14.469,41.939h.469a.469.469,0,0,0,0-.939h-.469a.469.469,0,0,0,0,.939Z" transform="translate(-4.899 -19.043)" fill="#2170b8" stroke="#2170b8" stroke-width="0.5"/>
  </g>
</svg>
