<svg xmlns="http://www.w3.org/2000/svg" width="15.548" height="20.73" viewBox="0 0 15.548 20.73">
  <g id="placeholder-3" transform="translate(-64)">
    <g id="Group_3801" data-name="Group 3801" transform="translate(64)">
      <g id="Group_3800" data-name="Group 3800">
        <path id="Path_17295" data-name="Path 17295" d="M71.774,0A7.782,7.782,0,0,0,64,7.774c0,5.389,7.017,12.468,7.315,12.767a.651.651,0,0,0,.917,0c.3-.3,7.315-7.379,7.315-12.767A7.782,7.782,0,0,0,71.774,0Zm0,19.146C70.227,17.49,65.3,11.89,65.3,7.774a6.478,6.478,0,0,1,12.957,0C78.252,11.886,73.321,17.49,71.774,19.146Z" transform="translate(-64)" fill="#fff"/>
      </g>
    </g>
    <g id="Group_3803" data-name="Group 3803" transform="translate(67.887 3.887)">
      <g id="Group_3802" data-name="Group 3802">
        <path id="Path_17296" data-name="Path 17296" d="M163.887,96a3.887,3.887,0,1,0,3.887,3.887A3.892,3.892,0,0,0,163.887,96Zm0,6.478a2.591,2.591,0,1,1,2.591-2.591A2.594,2.594,0,0,1,163.887,102.478Z" transform="translate(-160 -96)" fill="#fff"/>
      </g>
    </g>
  </g>
</svg>
