<svg xmlns="http://www.w3.org/2000/svg" width="36" height="36" viewBox="0 0 36 36">
  <g id="Group_10731" data-name="Group 10731" transform="translate(-62 -66)">
    <g id="Path_19193" data-name="Path 19193" transform="translate(62 66)" fill="#534b49">
      <path d="M 18 34.5 C 13.59269046783447 34.5 9.449179649353027 32.78369903564453 6.33273983001709 29.66725921630859 C 3.216300010681152 26.55081939697266 1.5 22.40731048583984 1.5 18 C 1.5 13.59269046783447 3.216300010681152 9.449179649353027 6.33273983001709 6.33273983001709 C 9.449179649353027 3.216300010681152 13.59269046783447 1.5 18 1.5 C 22.40731048583984 1.5 26.55081939697266 3.216300010681152 29.66725921630859 6.33273983001709 C 32.78369903564453 9.449179649353027 34.5 13.59269046783447 34.5 18 C 34.5 22.40731048583984 32.78369903564453 26.55081939697266 29.66725921630859 29.66725921630859 C 26.55081939697266 32.78369903564453 22.40731048583984 34.5 18 34.5 Z" stroke="none"/>
      <path d="M 18 3 C 13.99336051940918 3 10.22653007507324 4.560270309448242 7.393400192260742 7.393400192260742 C 4.560270309448242 10.22653007507324 3 13.99336051940918 3 18 C 3 22.00664138793945 4.560270309448242 25.77346992492676 7.393400192260742 28.60659980773926 C 10.22653007507324 31.43972969055176 13.99336051940918 33 18 33 C 22.00664138793945 33 25.77346992492676 31.43972969055176 28.60659980773926 28.60659980773926 C 31.43972969055176 25.77346992492676 33 22.00664138793945 33 18 C 33 13.99336051940918 31.43972969055176 10.22653007507324 28.60659980773926 7.393400192260742 C 25.77346992492676 4.560270309448242 22.00664138793945 3 18 3 M 18 0 C 27.94112014770508 0 36 8.058879852294922 36 18 C 36 27.94112014770508 27.94112014770508 36 18 36 C 8.058879852294922 36 0 27.94112014770508 0 18 C 0 8.058879852294922 8.058879852294922 0 18 0 Z" stroke="none" fill="#fff"/>
    </g>
    <g id="photo-camera" transform="translate(72.162 77.392)">
      <path id="Path_16913" data-name="Path 16913" d="M13.75,43.355H11.2l-.329-1.645A.886.886,0,0,0,10,41H5.073a.886.886,0,0,0-.866.71l-.329,1.645H1.325A1.326,1.326,0,0,0,0,44.68v7.655a1.326,1.326,0,0,0,1.325,1.325H13.75a1.326,1.326,0,0,0,1.325-1.325V44.68A1.326,1.326,0,0,0,13.75,43.355ZM5.073,41.883H10l.294,1.472H4.779Zm9.119,10.452a.442.442,0,0,1-.442.442H1.325a.442.442,0,0,1-.442-.442V44.68a.442.442,0,0,1,.442-.442H13.75a.442.442,0,0,1,.442.442Z" transform="translate(0 -41)" fill="#fff"/>
      <path id="Path_16914" data-name="Path 16914" d="M148.268,185a3.268,3.268,0,1,0,3.268,3.268A3.272,3.272,0,0,0,148.268,185Zm0,5.653a2.385,2.385,0,1,1,2.385-2.385A2.388,2.388,0,0,1,148.268,190.653Z" transform="translate(-140.731 -180.76)" fill="#fff"/>
      <path id="Path_16915" data-name="Path 16915" d="M66.855,185H65.442a.442.442,0,0,0,0,.883h1.413a.442.442,0,0,0,0-.883Z" transform="translate(-63.086 -180.76)" fill="#fff"/>
    </g>
  </g>
</svg>
