<svg xmlns="http://www.w3.org/2000/svg" width="26.63" height="24.262" viewBox="0 0 26.63 24.262">
  <g id="Group_10733" data-name="Group 10733" transform="translate(-27.4 -256.4)">
    <g id="Group_10334" data-name="Group 10334" transform="translate(28 266.229)">
      <g id="Group_7500" data-name="Group 7500" transform="translate(0)">
        <path id="Path_18152" data-name="Path 18152" d="M34.189,241.468H31.283a.722.722,0,0,0-.727.716v11.463a.722.722,0,0,0,.727.716h2.906a.722.722,0,0,0,.727-.716V242.184A.721.721,0,0,0,34.189,241.468Z" transform="translate(-30.556 -241.468)" fill="none" stroke="#2170b8" stroke-width="1.2"/>
      </g>
    </g>
    <g id="Group_10335" data-name="Group 10335" transform="translate(35.293 257)">
      <g id="Group_7502" data-name="Group 7502">
        <path id="Path_18153" data-name="Path 18153" d="M168.9,101.592a2.59,2.59,0,0,0-2.625-2.183h-6.421a14.222,14.222,0,0,0,.826-4.87,3.43,3.43,0,0,0-3.438-3.366h-.68a.823.823,0,0,0-.824.824c0,1.9-.742,5.342-2.14,6.741a9.124,9.124,0,0,1-2.8,1.81v12.359a19.24,19.24,0,0,0,6.794,1.329h5.388a2.5,2.5,0,0,0,2.47-3.381,2.472,2.472,0,0,0,1.647-3.295,2.472,2.472,0,0,0,1.19-4.031A2.466,2.466,0,0,0,168.9,101.592Z" transform="translate(-150.794 -91.172)" fill="none" stroke="#2170b8" stroke-linecap="round" stroke-linejoin="round" stroke-width="1.2"/>
      </g>
    </g>
  </g>
</svg>
