<svg xmlns="http://www.w3.org/2000/svg" width="108.875" height="65.114" viewBox="0 0 108.875 65.114">
  <g id="Group_2901" data-name="Group 2901" transform="translate(-83.072 -82.558)">
    <path id="Path_16837" data-name="Path 16837" d="M256.344,96.749V83.691H259.3V96.749Z" transform="translate(-108.179 -0.708)" fill="#a2a4a7"/>
    <rect id="Rectangle_1670" data-name="Rectangle 1670" width="2.948" height="7.939" transform="translate(129.989 111.978)" fill="#a2a4a7"/>
    <rect id="Rectangle_1671" data-name="Rectangle 1671" width="2.948" height="7.941" transform="translate(129.989 88.328)" fill="#a2a4a7"/>
    <path id="Path_16838" data-name="Path 16838" d="M256.344,124.892v-6.416H259.3v6.416Z" transform="translate(-108.179 -22.425)" fill="#fff"/>
    <path id="Path_16839" data-name="Path 16839" d="M319.526,103.174V83.691h12.451v2.654h-9.5v5.692h8.1v2.627h-8.1v5.856h9.5v2.654Z" transform="translate(-147.626 -0.708)" fill="#fff"/>
    <path id="Path_16840" data-name="Path 16840" d="M188.479,159.219v-.029l-9-13.682h-2.709v19.483h2.955V151.281l9,13.709h2.709v-5.772Z" transform="translate(-58.497 -39.302)" fill="#fff"/>
    <path id="Path_16841" data-name="Path 16841" d="M210.921,96.269V96.24l9-13.682h2.709v19.483h-2.955V88.331l-9,13.709h-2.709V96.269Z" transform="translate(-77.975)" fill="#fff"/>
    <path id="Path_16842" data-name="Path 16842" d="M188.728,82.558l-9,13.709V96.23l-2.955,4.491v1.319h2.709l9-13.682V88.33h2.955V82.558Z" transform="translate(-58.499)" fill="#fff"/>
    <path id="Path_16843" data-name="Path 16843" d="M93.475,164.881a7.062,7.062,0,0,1-5.117-2.08c-1.916-1.916-1.888-4.077-1.888-7.827s-.027-5.911,1.888-7.827a7.06,7.06,0,0,1,5.117-2.08c3.585,0,6.267,2.107,6.951,5.993h-3.01A4.028,4.028,0,0,0,90.6,148.9c-.958,1.04-1.177,2.162-1.177,6.075s.219,5.035,1.177,6.075a3.891,3.891,0,0,0,2.873,1.177,3.935,3.935,0,0,0,3.968-3.339h2.983A6.726,6.726,0,0,1,93.475,164.881Z" transform="translate(-2.121 -39.027)" fill="#fff"/>
    <path id="Path_16844" data-name="Path 16844" d="M142.308,162.8a7.37,7.37,0,0,1-10.262,0c-1.916-1.916-1.888-4.077-1.888-7.827s-.027-5.911,1.888-7.827a7.369,7.369,0,0,1,10.262,0c1.916,1.916,1.861,4.077,1.861,7.827S144.224,160.885,142.308,162.8Zm-2.244-13.875a4.1,4.1,0,0,0-5.8,0c-.958,1.04-1.15,2.135-1.15,6.048s.192,5.008,1.15,6.048a4.1,4.1,0,0,0,5.8,0c.958-1.04,1.149-2.135,1.149-6.048S141.022,149.967,140.064,148.926Z" transform="translate(-29.397 -39.027)" fill="#fff"/>
    <g id="Group_2896" data-name="Group 2896" transform="translate(148.161 106.041)">
      <path id="Path_16845" data-name="Path 16845" d="M256.333,164.989V145.5h12.451v2.655h-9.5v5.692h8.1v2.627h-8.1v5.856h9.5v2.654Z" transform="translate(-256.333 -145.34)" fill="#fff"/>
      <path id="Path_16846" data-name="Path 16846" d="M303.546,164.881a7.061,7.061,0,0,1-5.117-2.08c-1.916-1.916-1.888-4.077-1.888-7.827s-.027-5.911,1.888-7.827a7.06,7.06,0,0,1,5.117-2.08c3.585,0,6.267,2.107,6.951,5.993h-3.01a4.028,4.028,0,0,0-6.814-2.162c-.958,1.04-1.177,2.162-1.177,6.075s.219,5.035,1.177,6.075a3.893,3.893,0,0,0,2.873,1.177,3.935,3.935,0,0,0,3.968-3.339H310.5A6.726,6.726,0,0,1,303.546,164.881Z" transform="translate(-281.436 -145.068)" fill="#fff"/>
      <path id="Path_16847" data-name="Path 16847" d="M344.631,148.159v16.83h-2.955v-16.83h-5.364V145.5h13.683v2.655Z" transform="translate(-306.266 -145.34)" fill="#fff"/>
    </g>
    <g id="Group_2898" data-name="Group 2898" transform="translate(83.4 91.496)">
      <g id="Group_2897" data-name="Group 2897">
        <path id="Path_16848" data-name="Path 16848" d="M88.44,107.784v9.092h-1.6v-9.092h-2.9V106.35h7.392v1.434Z" transform="translate(-83.946 -106.35)" fill="#fff"/>
        <path id="Path_16849" data-name="Path 16849" d="M116.3,116.877v-4.6h-4.273v4.6h-1.6V106.35h1.6v4.494H116.3V106.35h1.6v10.527Z" transform="translate(-100.483 -106.35)" fill="#fff"/>
        <path id="Path_16850" data-name="Path 16850" d="M143.557,116.877l-.724-2.114h-4.155l-.725,2.114h-1.7l3.859-10.527H141.4l3.859,10.527Zm-2.765-8.146-1.641,4.672h3.238Z" transform="translate(-116.603 -106.35)" fill="#fff"/>
        <path id="Path_16851" data-name="Path 16851" d="M166.165,116.877V106.35h1.6v10.527Z" transform="translate(-135.278 -106.35)" fill="#fff"/>
      </g>
    </g>
    <path id="Path_16852" data-name="Path 16852" d="M280.906,100.4c-.1.006-.2.012-.308.012a3.893,3.893,0,0,1-2.873-1.177c-.958-1.04-1.177-2.162-1.177-6.075s.219-5.035,1.177-6.075a3.893,3.893,0,0,1,2.873-1.177c.105,0,.207.006.308.012V83.26c-.1,0-.2-.006-.308-.006a7.06,7.06,0,0,0-5.117,2.08c-1.916,1.916-1.888,4.077-1.888,7.826s-.027,5.91,1.888,7.826a7.06,7.06,0,0,0,5.117,2.08c.1,0,.206,0,.308-.006Z" transform="translate(-118.948 -0.435)" fill="#fff"/>
    <g id="Group_2899" data-name="Group 2899" transform="translate(161.65 82.83)">
      <path id="Path_16853" data-name="Path 16853" d="M293.059,85.939a3.911,3.911,0,0,1,3.633,3.326h3.01c-.664-3.772-3.214-5.863-6.643-5.981Z" transform="translate(-292.751 -83.284)" fill="#a2a4a7"/>
      <path id="Path_16854" data-name="Path 16854" d="M292.259,90.321h0Z" transform="translate(-292.24 -87.677)" fill="#c51d21"/>
    </g>
    <path id="Path_16855" data-name="Path 16855" d="M219.674,159.217l-9-13.709h-2.709v5.772h2.955v.029l9,13.682h2.709v-1.418Z" transform="translate(-77.973 -39.302)" fill="#fff"/>
    <path id="Path_16856" data-name="Path 16856" d="M242.094,156.583V134.427h-2.955v17.939Z" transform="translate(-97.437 -32.384)" fill="#a2a4a7"/>
    <path id="Path_16857" data-name="Path 16857" d="M296.719,120.039a3.937,3.937,0,0,1-3.66,3.326h0v2.654a6.7,6.7,0,0,0,6.643-5.981Z" transform="translate(-131.102 -23.401)" fill="#a2a4a7"/>
    <text id="E-MICE_MARKETPLACE" data-name="E-MICE MARKETPLACE" transform="translate(83.613 135.623)" fill="#fff" font-size="7" font-family="Helvetica" letter-spacing="0.212em"><tspan x="0" y="0">E-MICE MARKETPLACE</tspan></text>
    <g id="Group_2900" data-name="Group 2900" transform="translate(83.072 138.881)">
      <path id="Path_16858" data-name="Path 16858" d="M83.537,241.222V243.4a.581.581,0,0,1,.235-.045.729.729,0,0,1,.5.177.556.556,0,0,1,.214.461.589.589,0,0,1-.177.432.725.725,0,0,1-.535.2.734.734,0,0,1-.486-.165.6.6,0,0,1-.214-.486v-2.755Zm.235,3.039a.275.275,0,0,0,.212-.078.27.27,0,0,0-.212-.457.259.259,0,0,0-.2.08.272.272,0,0,0-.072.187.276.276,0,0,0,.07.187A.258.258,0,0,0,83.772,244.261Z" transform="translate(-83.072 -237.941)" fill="#fff"/>
      <path id="Path_16859" data-name="Path 16859" d="M90.144,243.335a2.356,2.356,0,0,1-.012.3.511.511,0,0,1-.072.144.636.636,0,0,1-.109.124.674.674,0,0,1-.257.109,1.89,1.89,0,0,1-.352.027H89.1a2.516,2.516,0,0,1-.317-.012.668.668,0,0,1-.29-.128.418.418,0,0,1-.163-.231,1.461,1.461,0,0,1-.029-.333v-.486a1.189,1.189,0,0,1,.251-.659,1.839,1.839,0,0,0,.183-.325.747.747,0,0,0,.063-.288.562.562,0,0,0-.173-.42.59.59,0,0,0-.42-.173.566.566,0,0,0-.35.111.265.265,0,0,1,.062-.008.614.614,0,0,1,.428.132.491.491,0,0,1,.189.4.572.572,0,0,1-.047.237.559.559,0,0,1-.132.183.582.582,0,0,1-.2.119.686.686,0,0,1-.239.041.679.679,0,0,1-.222-.035.78.78,0,0,1-.2-.1.527.527,0,0,1-.235-.441.979.979,0,0,1,.26-.683.9.9,0,0,1,.683-.3,1.169,1.169,0,0,1,.418.07,1.008,1.008,0,0,1,.335.214.87.87,0,0,1,.284.659,1.271,1.271,0,0,1-.247.729,2.312,2.312,0,0,0-.169.321.7.7,0,0,0-.062.264v.5a.183.183,0,0,0,.177.222.906.906,0,0,0,.14.012h.284a1.147,1.147,0,0,0,.142-.008.188.188,0,0,0,.1-.037.258.258,0,0,0,.066-.189V241.61a.333.333,0,0,0-.144-.28.648.648,0,0,0-.181-.095v-.35a.712.712,0,0,0,.539-.288.358.358,0,0,0,.037-.1c.011-.044.022-.095.033-.152h.461a1.179,1.179,0,0,1-.047.286.638.638,0,0,1-.093.2.8.8,0,0,1-.2.165,1.142,1.142,0,0,1-.263.111.447.447,0,0,1,.062.041.61.61,0,0,1,.045.041.541.541,0,0,1,.218.428Zm-2.227-1.919a.234.234,0,0,0-.179.064.218.218,0,0,0-.06.154.212.212,0,0,0,.06.15.233.233,0,0,0,.179.064.237.237,0,0,0,.173-.064.2.2,0,0,0,.066-.15.214.214,0,0,0-.062-.154A.235.235,0,0,0,87.917,241.416Z" transform="translate(-85.69 -237.394)" fill="#fff"/>
      <path id="Path_16860" data-name="Path 16860" d="M89.783,236.592a1.021,1.021,0,0,1,.138.07,1.126,1.126,0,0,1,.167.119l-.025-.144v-.655h.416v1.52H87.56v-.165a.764.764,0,0,1,.247-.551h0a1.565,1.565,0,0,1,1.128-.35,2.185,2.185,0,0,1,.334.025l.039,0,.047.008v-.49h.428v.609Zm-.852.206a1.161,1.161,0,0,0-.737.193.617.617,0,0,0-.049.058.55.55,0,0,0-.05.083H89.94a.629.629,0,0,0-.128-.136A1.561,1.561,0,0,0,88.931,236.8Z" transform="translate(-85.874 -234.67)" fill="#fff"/>
      <path id="Path_16861" data-name="Path 16861" d="M94.461,233.632v-1.145h.465v1.145Z" transform="translate(-90.183 -232.487)" fill="#fff"/>
      <path id="Path_16862" data-name="Path 16862" d="M101.283,243.659a2.163,2.163,0,0,1-.025.387.677.677,0,0,1-.214.329v0a.778.778,0,0,1-.346.144,1.556,1.556,0,0,1-.159.012c-.07,0-.152,0-.245,0h-.914c-.08,0-.147,0-.2-.006s-.1-.009-.14-.014a.878.878,0,0,1-.313-.136.56.56,0,0,1-.124-.13.55.55,0,0,1-.07-.153.891.891,0,0,1-.031-.189c0-.07-.006-.151-.006-.245v-.815a.693.693,0,0,1,.053-.276.6.6,0,0,1,.151-.21.664.664,0,0,1,.224-.132.821.821,0,0,1,.276-.045.7.7,0,0,1,.531.206.618.618,0,0,1,.181.441.549.549,0,0,1-.21.457.765.765,0,0,1-.5.177.59.59,0,0,1-.115-.012.9.9,0,0,1-.119-.033v.313a1.051,1.051,0,0,0,.012.165.269.269,0,0,0,.083.148.333.333,0,0,0,.193.062c.093.008.162.012.206.012h.864l.125,0c.037,0,.067,0,.089-.006a.474.474,0,0,0,.185-.066.411.411,0,0,0,.1-.313v-1.676a.4.4,0,0,0-.21-.338,1.6,1.6,0,0,0-.885-.193,1.936,1.936,0,0,0-.449.049,1.233,1.233,0,0,0-.337.128.578.578,0,0,0-.161.159.352.352,0,0,0-.057.2v.169h-.461V242a.7.7,0,0,1,.416-.626,2.07,2.07,0,0,1,1.05-.239,2.208,2.208,0,0,1,1.186.263.7.7,0,0,1,.371.618Zm-2.083-1.1a.262.262,0,0,0-.2.078.27.27,0,0,0-.072.189.258.258,0,0,0,.276.264.276.276,0,0,0,.21-.078.261.261,0,0,0,.074-.186.263.263,0,0,0-.077-.187A.273.273,0,0,0,99.2,242.555Z" transform="translate(-92.555 -237.886)" fill="#fff"/>
      <path id="Path_16863" data-name="Path 16863" d="M110.534,242.876l.006,0a.008.008,0,0,0,.006,0l0,0,.031.006.023.006a1.569,1.569,0,0,1,.284.1,2.941,2.941,0,0,1,.3.161,4.634,4.634,0,0,1,.716.531l.066.06c.024.023.047.046.066.068-.005-.03-.01-.06-.012-.088s-.007-.058-.012-.089v-2.524h.47v3.385h-.4a.683.683,0,0,1-.066-.078c-.022-.03-.042-.056-.062-.079-.047-.055-.1-.114-.16-.177s-.119-.121-.177-.173q-.123-.112-.278-.233t-.295-.216c-.06-.038-.127-.076-.2-.113s-.14-.07-.206-.1a.412.412,0,0,0-.045-.014l-.049-.014v.613a.59.59,0,0,1-.161.437.686.686,0,0,1-.515.185.86.86,0,0,1-.313-.056.884.884,0,0,1-.263-.159.8.8,0,0,1-.247-.605.82.82,0,0,1,.07-.346.888.888,0,0,1,.2-.276,1.068,1.068,0,0,1,.741-.251h.008V242.3a.683.683,0,0,1-.251.045.79.79,0,0,1-.5-.173.586.586,0,0,1-.206-.461.638.638,0,0,1,.043-.239.658.658,0,0,1,.126-.2.7.7,0,0,1,.535-.206.732.732,0,0,1,.5.165.619.619,0,0,1,.222.494Zm-.531.358a.57.57,0,0,0-.21.037.528.528,0,0,0-.165.1.446.446,0,0,0-.109.152.457.457,0,0,0-.039.187.44.44,0,0,0,.124.313h0a.4.4,0,0,0,.268.115.178.178,0,0,0,.148-.062.249.249,0,0,0,.05-.161v-.683Zm-.189-1.8a.275.275,0,0,0-.212.078.271.271,0,0,0-.072.19.274.274,0,0,0,.074.189.268.268,0,0,0,.21.082.265.265,0,0,0,.284-.272.267.267,0,0,0-.019-.1.27.27,0,0,0-.051-.084.361.361,0,0,0-.093-.06A.3.3,0,0,0,109.813,241.435Z" transform="translate(-99.287 -237.845)" fill="#fff"/>
      <path id="Path_16864" data-name="Path 16864" d="M120.583,239.9a.6.6,0,0,1,.247-.049.723.723,0,0,1,.494.177.548.548,0,0,1,.214.461.607.607,0,0,1-.173.428.7.7,0,0,1-.535.206.756.756,0,0,1-.494-.165.591.591,0,0,1-.218-.486v-3.615a.337.337,0,0,0-.008-.078.138.138,0,0,0-.033-.06.232.232,0,0,0-.074-.049c-.033-.015-.077-.032-.132-.051h.008a.908.908,0,0,0-.111-.027l-.181-.035h-.008a0,0,0,0,1,0,0l-.092-.014-.118-.019.012-.153a.7.7,0,0,1,.276-.556.96.96,0,0,1,.278-.15,1.048,1.048,0,0,1,.34-.051,1.686,1.686,0,0,1,.268.023,2.087,2.087,0,0,1,.3.072,1.262,1.262,0,0,0,.2.043,1.36,1.36,0,0,0,.175.014.513.513,0,0,0,.132-.016.893.893,0,0,0,.111-.037.337.337,0,0,0,.115-.086l.218.391a.345.345,0,0,1-.083.062.952.952,0,0,1-.416.1,1.681,1.681,0,0,1-.551-.087,1.653,1.653,0,0,0-.239-.066,1.111,1.111,0,0,0-.189-.017.53.53,0,0,0-.2.035.418.418,0,0,0-.147.1.151.151,0,0,0-.029.043l-.029.06.008,0a.026.026,0,0,0,.012,0l.057.012c.039.008.078.018.118.031a.657.657,0,0,1,.1.039,1.6,1.6,0,0,1,.2.091.342.342,0,0,1,.119.1.623.623,0,0,1,.066.342Zm.247.857a.275.275,0,0,0,.212-.078.271.271,0,0,0,.072-.189.262.262,0,0,0-.076-.187.273.273,0,0,0-.208-.08.259.259,0,0,0-.2.08.272.272,0,0,0-.072.187.275.275,0,0,0,.07.187A.258.258,0,0,0,120.83,240.758Z" transform="translate(-105.73 -234.437)" fill="#fff"/>
      <path id="Path_16865" data-name="Path 16865" d="M127.335,242.026a.5.5,0,0,0,.058.241.7.7,0,0,0,.16.2.9.9,0,0,0,.568.169h.61v.379h-.56a1.1,1.1,0,0,0-.249.027.463.463,0,0,0-.2.1.344.344,0,0,0-.14.288v.28a.334.334,0,0,0,.113.3.638.638,0,0,0,.393.082h.865a1.482,1.482,0,0,0,.2-.011.258.258,0,0,0,.134-.063.362.362,0,0,0,.1-.132.471.471,0,0,0,.031-.181V241.12h.469v2.648a2.1,2.1,0,0,1-.01.224.447.447,0,0,1-.039.15.551.551,0,0,1-.169.206v0a.755.755,0,0,1-.346.144,1.547,1.547,0,0,1-.159.012q-.1,0-.241,0h-.914a2.079,2.079,0,0,1-.342-.021.8.8,0,0,1-.313-.136.653.653,0,0,1-.214-.325,1.329,1.329,0,0,1-.021-.155q-.008-.1-.008-.237V243.3a.4.4,0,0,1,0-.068.346.346,0,0,1,.054-.132.8.8,0,0,1,.1-.123.557.557,0,0,1,.222-.124,1.013,1.013,0,0,1-.235-.107.765.765,0,0,1-.284-.288.805.805,0,0,1-.091-.387.853.853,0,0,1,.321-.7,1.242,1.242,0,0,1,.831-.276,1.024,1.024,0,0,1,.709.222.57.57,0,0,1,.222.453.581.581,0,0,1-.219.461.762.762,0,0,1-.486.173.742.742,0,0,1-.228-.035.881.881,0,0,1-.212-.1.591.591,0,0,1-.2-.218.621.621,0,0,1-.062-.28.643.643,0,0,1,.008-.1.343.343,0,0,1,.033-.1.128.128,0,0,0-.033.019.168.168,0,0,1-.029.018.631.631,0,0,0-.154.189A.5.5,0,0,0,127.335,242.026Zm.935-.531a.258.258,0,0,0-.28.267.265.265,0,0,0,.072.186.269.269,0,0,0,.208.078.26.26,0,0,0,.2-.076.265.265,0,0,0,.07-.187.276.276,0,0,0-.07-.187A.253.253,0,0,0,128.27,241.494Z" transform="translate(-110.43 -237.859)" fill="#fff"/>
      <path id="Path_16866" data-name="Path 16866" d="M139.17,243.983a.533.533,0,0,1-.169.428.578.578,0,0,1-.391.132.779.779,0,0,1-.338-.058h0a.613.613,0,0,1-.183-.124.951.951,0,0,1-.15-.193l-1.07-1.836.383-.255L138.363,244a.227.227,0,0,0,.128.111h0a.386.386,0,0,0,.053.006l.054,0a.132.132,0,0,0,.092-.089.722.722,0,0,0,.023-.212V242.34a.663.663,0,0,1-.243.045.747.747,0,0,1-.49-.169.572.572,0,0,1-.218-.461.614.614,0,0,1,.173-.441.742.742,0,0,1,.535-.2.75.75,0,0,1,.49.165.629.629,0,0,1,.214.494Zm-.7-2.5a.257.257,0,0,0-.2.078.289.289,0,0,0,0,.377.252.252,0,0,0,.2.08.263.263,0,0,0,.2-.078.282.282,0,0,0,0-.377A.26.26,0,0,0,138.466,241.479Z" transform="translate(-116.662 -237.872)" fill="#fff"/>
      <path id="Path_16867" data-name="Path 16867" d="M146.542,242.817v.968a.331.331,0,0,0,.115.3.621.621,0,0,0,.391.085h.523l.128,0a.862.862,0,0,0,.086-.006.371.371,0,0,0,.186-.07.4.4,0,0,0,.107-.309v-1.041a.258.258,0,0,0-.057-.169.436.436,0,0,0-.157-.115,1.412,1.412,0,0,0-.247-.055,2.357,2.357,0,0,0-.35-.023,2.492,2.492,0,0,0-.354.025,3.136,3.136,0,0,0-.346.07,2.787,2.787,0,0,0-.284.1H145.9v-.494a.748.748,0,0,1,.276-.58,1.356,1.356,0,0,1,.922-.284c.063,0,.121,0,.173,0s.105.007.159.012a1.474,1.474,0,0,1,.167.027l.2.043c.066.014.131.025.2.033a1.315,1.315,0,0,0,.163.012.882.882,0,0,0,.138-.01.815.815,0,0,0,.117-.027.14.14,0,0,0,.043-.023c.018-.012.041-.029.068-.051l.214.367a.511.511,0,0,1-.074.051.574.574,0,0,1-.066.035.977.977,0,0,1-.375.062c-.066,0-.136,0-.21-.01a1.641,1.641,0,0,1-.243-.043l-.169-.033c-.06-.011-.119-.021-.177-.029s-.113-.015-.167-.021-.1-.008-.138-.008a.9.9,0,0,0-.6.169.486.486,0,0,0-.169.383v0l.117-.041.085-.029a2.645,2.645,0,0,1,.721-.1,2.983,2.983,0,0,1,.6.053,1.315,1.315,0,0,1,.414.153.51.51,0,0,1,.255.432v1.083a1.738,1.738,0,0,1-.029.383.534.534,0,0,1-.2.317.807.807,0,0,1-.356.152c-.039.005-.092.01-.161.012s-.151,0-.247,0h-.568c-.08,0-.148,0-.2-.006s-.1-.009-.138-.014a.794.794,0,0,1-.313-.136.689.689,0,0,1-.132-.144.6.6,0,0,1-.082-.181,1.107,1.107,0,0,1-.021-.151q-.008-.1-.008-.237v-.893Z" transform="translate(-122.298 -237.934)" fill="#fff"/>
      <path id="Path_16868" data-name="Path 16868" d="M150.084,251.6a.5.5,0,0,1,.045-.21.481.481,0,0,1,.127-.169.634.634,0,0,1,.2-.111.725.725,0,0,1,.249-.041.623.623,0,0,1,.461.165.5.5,0,0,1,.148.367v1.28h-.469v-.754l.008-.029a.467.467,0,0,1-.148.024.735.735,0,0,1-.22-.033.761.761,0,0,1-.187-.087.588.588,0,0,1-.153-.177A.456.456,0,0,1,150.084,251.6Zm.618-.165a.212.212,0,0,0-.148.049.158.158,0,0,0-.053.119.163.163,0,0,0,.049.119.208.208,0,0,0,.153.049.2.2,0,0,0,.146-.049.164.164,0,0,0,0-.239A.2.2,0,0,0,150.7,251.431Z" transform="translate(-124.91 -244.085)" fill="#fff"/>
      <path id="Path_16869" data-name="Path 16869" d="M157.456,242.693a.3.3,0,0,0-.218-.284,1.329,1.329,0,0,0-.247-.053,2.668,2.668,0,0,0-.35-.021,2.748,2.748,0,0,0-.352.023,2.785,2.785,0,0,0-.348.068,2.459,2.459,0,0,0-.284.1h-.391v-.494a.748.748,0,0,1,.28-.585,1.356,1.356,0,0,1,.922-.288c.063,0,.123,0,.181,0s.11.007.156.012.11.014.173.025a1.767,1.767,0,0,1,.193.045,1.627,1.627,0,0,0,.2.037,1.389,1.389,0,0,0,.162.012.77.77,0,0,0,.26-.041,1.121,1.121,0,0,0,.119-.07l.21.367c-.044.03-.084.055-.119.074a.391.391,0,0,1-.091.037v0a.75.75,0,0,1-.15.035,1.306,1.306,0,0,1-.163.011,1.934,1.934,0,0,1-.208-.013,2,2,0,0,1-.249-.045l-.173-.033c-.06-.011-.119-.02-.177-.029l-.165-.021q-.078-.008-.14-.008a.91.91,0,0,0-.606.173.482.482,0,0,0-.16.383v.008c.03-.014.064-.027.1-.041s.071-.025.1-.033a3.117,3.117,0,0,1,.354-.072,2.567,2.567,0,0,1,.363-.027,2.984,2.984,0,0,1,.607.054,1.3,1.3,0,0,1,.418.152.653.653,0,0,1,.187.192.455.455,0,0,1,.068.245v1.346a.6.6,0,0,1-.214.486.71.71,0,0,1-.222.125.843.843,0,0,1-.28.043.708.708,0,0,1-.523-.2.6.6,0,0,1-.181-.437.622.622,0,0,1,.054-.261.521.521,0,0,1,.16-.2.717.717,0,0,1,.49-.181.689.689,0,0,1,.128.012.79.79,0,0,1,.124.033Zm-.251,1.523a.267.267,0,0,0,.206-.076.272.272,0,0,0,.07-.192.275.275,0,0,0-.07-.187.259.259,0,0,0-.206-.08.257.257,0,0,0-.2.078.291.291,0,0,0,0,.379A.257.257,0,0,0,157.2,244.216Z" transform="translate(-128.144 -237.9)" fill="#fff"/>
      <path id="Path_16870" data-name="Path 16870" d="M165.358,244.559V242.8a.507.507,0,0,1,.181-.4.656.656,0,0,1,.136-.091h-.461v-.247a.75.75,0,0,1,.37-.622,1.793,1.793,0,0,1,1.033-.255,2.34,2.34,0,0,1,.577.064,1.655,1.655,0,0,1,.449.183.784.784,0,0,1,.391.708v2.425h-.465V242.1a.448.448,0,0,0-.321-.432,1.581,1.581,0,0,0-.63-.115,1.427,1.427,0,0,0-.725.152.574.574,0,0,0-.2.268h.741v.391a1.709,1.709,0,0,0-.333.074h0a.428.428,0,0,0-.284.4v1.721Z" transform="translate(-134.356 -237.914)" fill="#fff"/>
      <path id="Path_16871" data-name="Path 16871" d="M165.353,238.194v-.165a.753.753,0,0,1,.251-.556h0a1.554,1.554,0,0,1,1.132-.35,2.058,2.058,0,0,1,1.2.3.927.927,0,0,1,.264.276.635.635,0,0,1,.091.329v.165Zm1.379-.708a1.139,1.139,0,0,0-.741.2.329.329,0,0,0-.051.056.557.557,0,0,0-.047.08h1.853a.609.609,0,0,0-.064-.076.544.544,0,0,0-.064-.056A1.569,1.569,0,0,0,166.732,237.486Z" transform="translate(-134.443 -235.381)" fill="#fff"/>
      <path id="Path_16872" data-name="Path 16872" d="M175.17,242.175v-.165a.551.551,0,0,1,.109-.326,1.072,1.072,0,0,1,.307-.276,1.689,1.689,0,0,1,.435-.169,2.238,2.238,0,0,1,.541-.062,1.888,1.888,0,0,1,1.021.247.783.783,0,0,1,.4.708v1.89a.554.554,0,0,1-.161.428.544.544,0,0,1-.171.1.662.662,0,0,1-.22.033.692.692,0,0,1-.187-.025.58.58,0,0,1-.154-.066.616.616,0,0,1-.235-.362l-.169-.671v-.091l-.021.012-.021.012a.929.929,0,0,1-.166.072.6.6,0,0,1-.179.027.749.749,0,0,1-.261-.043.848.848,0,0,1-.224-.125.585.585,0,0,1-.214-.461.618.618,0,0,1,.173-.436.7.7,0,0,1,.527-.206.711.711,0,0,1,.494.177.679.679,0,0,1,.14.177.809.809,0,0,1,.078.214l.14.613.14.618a.242.242,0,0,0,.037.1.093.093,0,0,0,.082.044c.038,0,.066-.026.082-.078a.773.773,0,0,0,.025-.222V242.1a.449.449,0,0,0-.325-.432,1.318,1.318,0,0,0-.286-.086,1.826,1.826,0,0,0-.34-.029,1.326,1.326,0,0,0-.7.152.576.576,0,0,0-.243.309v.165Zm1.124.416a.26.26,0,0,0-.2.08.272.272,0,0,0-.072.187.258.258,0,0,0,.276.264.277.277,0,0,0,.21-.078.262.262,0,0,0,.074-.186.265.265,0,0,0-.076-.187A.273.273,0,0,0,176.294,242.591Z" transform="translate(-140.572 -237.914)" fill="#fff"/>
      <path id="Path_16873" data-name="Path 16873" d="M185.479,235.225h.609v4.352a.67.67,0,0,1,.239-.041.7.7,0,0,1,.253.045.6.6,0,0,1,.2.13.6.6,0,0,1,.136.2.668.668,0,0,1,.049.262.634.634,0,0,1-.173.432.74.74,0,0,1-.527.2.592.592,0,0,1-.642-.65v-3.574c0-.074,0-.141-.006-.2s0-.115-.006-.169,0-.11-.006-.169,0-.125,0-.2q-.116.2-.225.393t-.216.385h-.547a1.647,1.647,0,0,0-.251-.98,1.5,1.5,0,0,0-.3-.247l.284-.293a.2.2,0,0,1,.082.029.958.958,0,0,1,.119.079,1.08,1.08,0,0,1,.156.165,1.722,1.722,0,0,1,.128.189,1.5,1.5,0,0,1,.1.249,1.438,1.438,0,0,1,.051.274Zm.791,5.217a.275.275,0,0,0,.21-.078.273.273,0,0,0,0-.377.274.274,0,0,0-.208-.08.264.264,0,0,0-.28.268.271.271,0,0,0,.072.187A.264.264,0,0,0,186.27,240.442Z" transform="translate(-146.126 -234.122)" fill="#fff"/>
      <path id="Path_16874" data-name="Path 16874" d="M195.013,242.876a.007.007,0,0,1,.006,0,.009.009,0,0,0,.006,0l0,0,.031.006.023.006a1.562,1.562,0,0,1,.284.1,2.979,2.979,0,0,1,.3.161,4.67,4.67,0,0,1,.716.531c.019.017.041.036.066.06s.047.046.066.068c-.006-.03-.01-.06-.012-.088s-.007-.058-.012-.089v-2.524h.469v3.385h-.4a.684.684,0,0,1-.066-.078c-.022-.03-.042-.056-.062-.079q-.07-.082-.16-.177t-.177-.173q-.123-.112-.278-.233t-.295-.216c-.06-.038-.126-.076-.2-.113s-.14-.07-.206-.1a.382.382,0,0,0-.045-.014l-.05-.014v.613a.588.588,0,0,1-.161.437.686.686,0,0,1-.515.185.861.861,0,0,1-.313-.056.889.889,0,0,1-.263-.159.806.806,0,0,1-.247-.605.814.814,0,0,1,.07-.346.88.88,0,0,1,.2-.276,1.069,1.069,0,0,1,.741-.251h.008V242.3a.685.685,0,0,1-.251.045.791.791,0,0,1-.5-.173.586.586,0,0,1-.206-.461.631.631,0,0,1,.043-.239.664.664,0,0,1,.125-.2.7.7,0,0,1,.535-.206.732.732,0,0,1,.5.165.618.618,0,0,1,.222.494Zm-.531.358a.571.571,0,0,0-.21.037.528.528,0,0,0-.165.1.45.45,0,0,0-.109.152.457.457,0,0,0-.039.187.442.442,0,0,0,.124.313h0a.4.4,0,0,0,.267.115.179.179,0,0,0,.148-.062.249.249,0,0,0,.05-.161v-.683Zm-.189-1.8a.275.275,0,0,0-.212.078.284.284,0,1,0,.5.19.274.274,0,0,0-.018-.1.279.279,0,0,0-.051-.084.353.353,0,0,0-.092-.06A.3.3,0,0,0,194.292,241.435Z" transform="translate(-152.029 -237.845)" fill="#fff"/>
      <path id="Path_16875" data-name="Path 16875" d="M207.651,243.335c0,.071,0,.132,0,.183a.541.541,0,0,1-.017.117.436.436,0,0,1-.062.148.456.456,0,0,1-.111.119.88.88,0,0,1-.092.06.454.454,0,0,1-.116.043,1.128,1.128,0,0,1-.162.025c-.063.005-.14.008-.231.008h-.239a2.58,2.58,0,0,1-.321-.012.573.573,0,0,1-.15-.045.7.7,0,0,1-.134-.08.507.507,0,0,1-.1-.107.356.356,0,0,1-.06-.125,1.461,1.461,0,0,1-.029-.333v-.861a.8.8,0,0,1,.066-.346c.008-.014.026-.041.056-.08s.071-.092.125-.158.1-.131.14-.177.067-.083.087-.111a.479.479,0,0,0,.091-.222v-.169a.407.407,0,0,0-.008-.088.04.04,0,0,0-.041-.035c-.06,0-.133.068-.218.2-.022.036-.043.072-.064.109s-.045.082-.072.134h-.1c-.03-.063-.059-.118-.087-.163s-.052-.083-.074-.113v0a.534.534,0,0,0-.428-.243.442.442,0,0,0-.309.086.2.2,0,0,1,.037,0,.17.17,0,0,0,.037,0,.656.656,0,0,1,.225.025.563.563,0,0,1,.2.1.48.48,0,0,1,.189.391.56.56,0,0,1-.177.42.557.557,0,0,1-.2.119.7.7,0,0,1-.241.041.683.683,0,0,1-.416-.14.51.51,0,0,1-.239-.441.917.917,0,0,1,.251-.659.828.828,0,0,1,.638-.28.722.722,0,0,1,.515.2.524.524,0,0,1,.045.051c.014.018.032.039.053.064a.269.269,0,0,1,.029-.062.277.277,0,0,0,.025-.045.459.459,0,0,1,.375-.206h.05a.419.419,0,0,1,.173.035.426.426,0,0,1,.134.093.416.416,0,0,1,.086.132.391.391,0,0,1,.031.152v.321a.53.53,0,0,1-.041.206,1.6,1.6,0,0,1-.21.317q-.078.1-.125.165a.858.858,0,0,0-.056.083.585.585,0,0,0-.066.152.672.672,0,0,0-.025.186v.877a.256.256,0,0,0,.062.189.354.354,0,0,0,.111.033.806.806,0,0,0,.132.012h.3a1.1,1.1,0,0,0,.14-.008.183.183,0,0,0,.1-.037.158.158,0,0,0,.047-.08.4.4,0,0,0,.015-.109V241.61a.34.34,0,0,0-.144-.28.256.256,0,0,0-.068-.043l-.109-.051v-.35a1.076,1.076,0,0,0,.334-.1.478.478,0,0,0,.2-.185.577.577,0,0,0,.07-.251h.473a1.093,1.093,0,0,1-.049.286.743.743,0,0,1-.091.2.785.785,0,0,1-.2.165,1.174,1.174,0,0,1-.266.111c.022.014.042.028.06.041a.4.4,0,0,1,.047.041.537.537,0,0,1,.214.428Zm-2.6-1.919a.236.236,0,0,0-.177.064.213.213,0,0,0-.062.154.208.208,0,0,0,.062.15.235.235,0,0,0,.177.064.237.237,0,0,0,.173-.064.2.2,0,0,0,.066-.15.213.213,0,0,0-.062-.154A.236.236,0,0,0,205.05,241.416Z" transform="translate(-158.823 -237.394)" fill="#fff"/>
      <path id="Path_16876" data-name="Path 16876" d="M211.435,236.734a.437.437,0,0,1-.208.292.725.725,0,0,1-.393.107.793.793,0,0,1-.224-.033.583.583,0,0,1-.2-.1.547.547,0,0,1-.144-.175.54.54,0,0,1-.056-.254.582.582,0,0,1,.239-.482v0a1.483,1.483,0,0,1,.918-.235.645.645,0,0,0,.266-.049.326.326,0,0,0,.159-.14.614.614,0,0,0,.049-.243h.465a1.935,1.935,0,0,1-.017.206.739.739,0,0,1-.033.144.5.5,0,0,1-.247.28,1.162,1.162,0,0,1-.264.107,1.134,1.134,0,0,1-.3.041l-.239.017a.549.549,0,0,1,.173.163.408.408,0,0,1,.074.241A.492.492,0,0,1,211.435,236.734Zm-.614-.321a.207.207,0,0,0-.152.053.179.179,0,0,0-.054.132.182.182,0,0,0,.054.13.2.2,0,0,0,.152.056.219.219,0,0,0,.161-.054.187.187,0,0,0,0-.261A.213.213,0,0,0,210.821,236.412Z" transform="translate(-162.447 -234.321)" fill="#fff"/>
      <path id="Path_16877" data-name="Path 16877" d="M217.2,248.758a.531.531,0,0,1-.381-.128.421.421,0,0,1-.134-.317.428.428,0,0,1,.134-.319.525.525,0,0,1,.381-.13.535.535,0,0,1,.383.136.433.433,0,0,1,0,.628A.532.532,0,0,1,217.2,248.758Z" transform="translate(-166.49 -242.087)" fill="#fff"/>
      <path id="Path_16878" data-name="Path 16878" d="M223.157,248.758a.531.531,0,0,1-.381-.128.421.421,0,0,1-.134-.317.428.428,0,0,1,.134-.319.525.525,0,0,1,.381-.13.535.535,0,0,1,.383.136.433.433,0,0,1,0,.628A.532.532,0,0,1,223.157,248.758Z" transform="translate(-170.21 -242.087)" fill="#fff"/>
      <path id="Path_16879" data-name="Path 16879" d="M229.116,248.758a.53.53,0,0,1-.381-.128.42.42,0,0,1-.134-.317.427.427,0,0,1,.134-.319.524.524,0,0,1,.381-.13.536.536,0,0,1,.383.136.432.432,0,0,1,0,.628A.531.531,0,0,1,229.116,248.758Z" transform="translate(-173.931 -242.087)" fill="#fff"/>
      <path id="Path_16880" data-name="Path 16880" d="M242.416,242.175v-.165a.551.551,0,0,1,.109-.326,1.073,1.073,0,0,1,.307-.276,1.7,1.7,0,0,1,.435-.169,2.24,2.24,0,0,1,.541-.062,1.888,1.888,0,0,1,1.021.247.782.782,0,0,1,.4.708v1.89a.554.554,0,0,1-.161.428.544.544,0,0,1-.171.1.662.662,0,0,1-.22.033.694.694,0,0,1-.187-.025.58.58,0,0,1-.154-.066.616.616,0,0,1-.235-.362l-.169-.671v-.091l-.021.012-.02.012a.943.943,0,0,1-.167.072.6.6,0,0,1-.179.027.749.749,0,0,1-.261-.043.848.848,0,0,1-.224-.125.585.585,0,0,1-.214-.461.618.618,0,0,1,.173-.436.7.7,0,0,1,.527-.206.712.712,0,0,1,.494.177.679.679,0,0,1,.14.177.809.809,0,0,1,.078.214l.14.613.14.618a.242.242,0,0,0,.037.1.093.093,0,0,0,.082.044c.038,0,.066-.026.082-.078a.773.773,0,0,0,.025-.222V242.1a.449.449,0,0,0-.325-.432,1.318,1.318,0,0,0-.286-.086,1.826,1.826,0,0,0-.34-.029,1.326,1.326,0,0,0-.7.152.576.576,0,0,0-.243.309v.165Zm1.124.416a.26.26,0,0,0-.2.08.272.272,0,0,0-.072.187.258.258,0,0,0,.276.264.277.277,0,0,0,.21-.078.262.262,0,0,0,.074-.186.265.265,0,0,0-.076-.187A.273.273,0,0,0,243.54,242.591Z" transform="translate(-182.556 -237.914)" fill="#fff"/>
      <path id="Path_16881" data-name="Path 16881" d="M247.956,236.427l-.05.334a1.01,1.01,0,0,1-.216.327,1.305,1.305,0,0,1-.352.254,2.562,2.562,0,0,1-.71.222,5.479,5.479,0,0,1-.953.074,1.317,1.317,0,0,1-.7-.177.616.616,0,0,1-.309-.539.545.545,0,0,1,.2-.4.643.643,0,0,1,.469-.177.709.709,0,0,1,.5.177.532.532,0,0,1,.07.717l-.018.018-.018.018a.246.246,0,0,0,.057,0l.054,0c.08,0,.156,0,.228,0s.152-.008.237-.017a2.325,2.325,0,0,0,.435-.088A.966.966,0,0,0,247.2,237a.646.646,0,0,0,.251-.35v.008a.027.027,0,0,1,0-.012.026.026,0,0,0,0-.012c.005-.027.011-.061.018-.1s.013-.075.018-.105Zm-2.619.289a.242.242,0,0,0-.185.07.237.237,0,0,0-.066.169.229.229,0,0,0,.064.163.245.245,0,0,0,.187.068.259.259,0,0,0,.192-.068.223.223,0,0,0,.068-.163.234.234,0,0,0-.068-.169A.255.255,0,0,0,245.337,236.716Z" transform="translate(-183.963 -234.896)" fill="#fff"/>
      <path id="Path_16882" data-name="Path 16882" d="M254.392,243.756c.082-.071.154-.137.216-.2l.166-.165a.483.483,0,0,1,.045-.053c.005-.006.009-.008.01-.008s.006-.007.015-.021a1.071,1.071,0,0,1-.206-.074.5.5,0,0,1-.3-.47.511.511,0,0,1,.185-.424.642.642,0,0,1,.449-.165.735.735,0,0,1,.27.049.761.761,0,0,1,.221.132.668.668,0,0,1,.117.183.559.559,0,0,1,.043.22v.047a.12.12,0,0,1,0,.035.939.939,0,0,1-.053.187,1.256,1.256,0,0,1-.1.187,2.12,2.12,0,0,1-.218.284,3.7,3.7,0,0,1-.313.309l-.84.745h-.581v-2.425a.778.778,0,0,1,.408-.708,1.836,1.836,0,0,1,.47-.183,2.4,2.4,0,0,1,.576-.064,2.474,2.474,0,0,1,.585.064,1.761,1.761,0,0,1,.469.183.9.9,0,0,1,.3.3.779.779,0,0,1,.107.4v2.425h-.465V242.1a.459.459,0,0,0-.35-.432,1.7,1.7,0,0,0-.651-.115,1.644,1.644,0,0,0-.638.111.461.461,0,0,0-.35.437v1.993c.025-.019.045-.034.062-.045v0l.161-.136Zm.585-1.239a.229.229,0,0,0-.181.07.245.245,0,0,0-.062.169.229.229,0,0,0,.062.165.235.235,0,0,0,.181.066.239.239,0,0,0,.183-.068.23.23,0,0,0,.064-.163.227.227,0,0,0-.247-.239Z" transform="translate(-189.49 -237.914)" fill="#fff"/>
      <path id="Path_16883" data-name="Path 16883" d="M264.383,244.559V242.8a.508.508,0,0,1,.181-.4.66.66,0,0,1,.136-.091h-.461v-.247a.749.749,0,0,1,.371-.622,1.791,1.791,0,0,1,1.033-.255,2.337,2.337,0,0,1,.576.064,1.655,1.655,0,0,1,.449.183.784.784,0,0,1,.391.708v2.425h-.465V242.1a.448.448,0,0,0-.321-.432,1.581,1.581,0,0,0-.63-.115,1.426,1.426,0,0,0-.725.152.572.572,0,0,0-.2.268h.741v.391a1.714,1.714,0,0,0-.334.074h0a.428.428,0,0,0-.284.4v1.721Z" transform="translate(-196.18 -237.914)" fill="#fff"/>
      <path id="Path_16884" data-name="Path 16884" d="M275.927,244.532v-2.54a.364.364,0,0,0-.193-.313,1.171,1.171,0,0,0-.671-.157,1.132,1.132,0,0,0-.591.132.405.405,0,0,0-.216.362v.206h-.474v-.251a.7.7,0,0,1,.358-.609,1.69,1.69,0,0,1,.922-.226,1.62,1.62,0,0,1,1.062.292.634.634,0,0,1,.263.5v2.6Z" transform="translate(-202.138 -237.886)" fill="#fff"/>
      <path id="Path_16885" data-name="Path 16885" d="M284.881,242.693a.3.3,0,0,0-.218-.284,1.329,1.329,0,0,0-.247-.053,2.668,2.668,0,0,0-.35-.021,2.748,2.748,0,0,0-.352.023,2.792,2.792,0,0,0-.348.068,2.512,2.512,0,0,0-.284.1h-.391v-.494a.747.747,0,0,1,.28-.585,1.355,1.355,0,0,1,.922-.288c.063,0,.123,0,.181,0s.11.007.156.012.11.014.173.025a1.81,1.81,0,0,1,.193.045,1.633,1.633,0,0,0,.2.037,1.4,1.4,0,0,0,.163.012.766.766,0,0,0,.259-.041,1.047,1.047,0,0,0,.119-.07l.21.367a1.391,1.391,0,0,1-.119.074.387.387,0,0,1-.091.037v0a.738.738,0,0,1-.15.035,1.3,1.3,0,0,1-.163.011,1.928,1.928,0,0,1-.208-.013,2,2,0,0,1-.249-.045l-.173-.033c-.06-.011-.119-.02-.177-.029l-.165-.021c-.052-.005-.1-.008-.14-.008a.91.91,0,0,0-.605.173.481.481,0,0,0-.16.383v.008c.03-.014.064-.027.1-.041s.071-.025.1-.033a3.116,3.116,0,0,1,.354-.072,2.567,2.567,0,0,1,.363-.027,2.985,2.985,0,0,1,.607.054,1.3,1.3,0,0,1,.418.152.653.653,0,0,1,.187.192.455.455,0,0,1,.068.245v1.346a.6.6,0,0,1-.214.486.7.7,0,0,1-.222.125.844.844,0,0,1-.28.043.709.709,0,0,1-.523-.2.6.6,0,0,1-.181-.437.616.616,0,0,1,.054-.261.518.518,0,0,1,.16-.2.717.717,0,0,1,.49-.181.689.689,0,0,1,.128.012.8.8,0,0,1,.124.033Zm-.251,1.523a.266.266,0,0,0,.206-.076.272.272,0,0,0,.07-.192.276.276,0,0,0-.07-.187.3.3,0,0,0-.408,0,.292.292,0,0,0,0,.379A.257.257,0,0,0,284.629,244.216Z" transform="translate(-207.7 -237.9)" fill="#fff"/>
      <path id="Path_16886" data-name="Path 16886" d="M293.939,243.983a.532.532,0,0,1-.169.428.577.577,0,0,1-.391.132.781.781,0,0,1-.338-.058h0a.612.612,0,0,1-.183-.124.951.951,0,0,1-.15-.193l-1.071-1.836.383-.255L293.131,244a.229.229,0,0,0,.128.111h0a.387.387,0,0,0,.053.006l.053,0a.131.131,0,0,0,.093-.089.725.725,0,0,0,.023-.212V242.34a.66.66,0,0,1-.243.045.747.747,0,0,1-.49-.169.573.573,0,0,1-.218-.461.614.614,0,0,1,.173-.441.741.741,0,0,1,.535-.2.751.751,0,0,1,.49.165.63.63,0,0,1,.214.494Zm-.7-2.5a.257.257,0,0,0-.2.078.288.288,0,0,0,0,.377.252.252,0,0,0,.2.08.263.263,0,0,0,.2-.078.282.282,0,0,0,0-.377A.261.261,0,0,0,293.234,241.479Z" transform="translate(-213.288 -237.872)" fill="#fff"/>
      <path id="Path_16887" data-name="Path 16887" d="M296.954,238.126v-1.145h.465v1.145Z" transform="translate(-216.605 -235.293)" fill="#fff"/>
      <path id="Path_16888" data-name="Path 16888" d="M302.241,244.532v-2.54a.364.364,0,0,0-.193-.313,1.171,1.171,0,0,0-.671-.157,1.132,1.132,0,0,0-.591.132.405.405,0,0,0-.216.362v.206H300.1v-.251a.7.7,0,0,1,.358-.609,1.69,1.69,0,0,1,.922-.226,1.62,1.62,0,0,1,1.062.292.634.634,0,0,1,.263.5v2.6Z" transform="translate(-218.567 -237.886)" fill="#fff"/>
      <path id="Path_16889" data-name="Path 16889" d="M310.226,242.026a.509.509,0,0,0,.058.241.7.7,0,0,0,.16.2.9.9,0,0,0,.568.169h.609v.379h-.56a1.1,1.1,0,0,0-.249.027.463.463,0,0,0-.2.1.344.344,0,0,0-.14.288v.28a.333.333,0,0,0,.113.3.636.636,0,0,0,.393.082h.865a1.478,1.478,0,0,0,.2-.011.258.258,0,0,0,.134-.063.362.362,0,0,0,.1-.132.471.471,0,0,0,.031-.181V241.12h.469v2.648a2.1,2.1,0,0,1-.01.224.446.446,0,0,1-.039.15.548.548,0,0,1-.169.206v0a.755.755,0,0,1-.346.144,1.545,1.545,0,0,1-.159.012q-.1,0-.241,0h-.914a2.08,2.08,0,0,1-.342-.021.8.8,0,0,1-.313-.136.654.654,0,0,1-.214-.325,1.329,1.329,0,0,1-.021-.155c-.005-.064-.008-.143-.008-.237V243.3a.36.36,0,0,1,0-.068.34.34,0,0,1,.053-.132.806.806,0,0,1,.1-.123.557.557,0,0,1,.222-.124,1.013,1.013,0,0,1-.235-.107.771.771,0,0,1-.284-.288.805.805,0,0,1-.091-.387.853.853,0,0,1,.321-.7,1.242,1.242,0,0,1,.832-.276,1.023,1.023,0,0,1,.708.222.57.57,0,0,1,.222.453.581.581,0,0,1-.218.461.764.764,0,0,1-.486.173.744.744,0,0,1-.228-.035.881.881,0,0,1-.212-.1.594.594,0,0,1-.2-.218.621.621,0,0,1-.062-.28.642.642,0,0,1,.008-.1.342.342,0,0,1,.033-.1.128.128,0,0,0-.033.019.168.168,0,0,1-.029.018.625.625,0,0,0-.154.189A.5.5,0,0,0,310.226,242.026Zm.935-.531a.258.258,0,0,0-.28.267.265.265,0,0,0,.072.186.269.269,0,0,0,.208.078.26.26,0,0,0,.2-.076.265.265,0,0,0,.07-.187.276.276,0,0,0-.07-.187A.253.253,0,0,0,311.161,241.494Z" transform="translate(-224.614 -237.859)" fill="#fff"/>
      <path id="Path_16890" data-name="Path 16890" d="M321.61,241.222V243.4a.579.579,0,0,1,.235-.045.729.729,0,0,1,.5.177.546.546,0,0,1,.21.461.589.589,0,0,1-.173.432.725.725,0,0,1-.535.2.75.75,0,0,1-.49-.165.617.617,0,0,1-.21-.486v-2.755Zm.235,3.039a.274.274,0,0,0,.212-.078.279.279,0,0,0,0-.377.273.273,0,0,0-.21-.08.254.254,0,0,0-.2.08.285.285,0,0,0,0,.375A.252.252,0,0,0,321.845,244.261Zm1.61-3.039V243.4a.6.6,0,0,1,.243-.045.753.753,0,0,1,.494.177.565.565,0,0,1,.206.461.6.6,0,0,1-.043.233.669.669,0,0,1-.125.2.7.7,0,0,1-.531.206.739.739,0,0,1-.49-.165.6.6,0,0,1-.214-.486v-2.755Zm.243,3.039a.271.271,0,0,0,.21-.08.267.267,0,0,0,.074-.187.278.278,0,0,0-.019-.105.23.23,0,0,0-.051-.08.363.363,0,0,0-.093-.06.3.3,0,0,0-.121-.023.275.275,0,0,0-.212.078.271.271,0,0,0-.072.19.267.267,0,0,0,.074.187A.271.271,0,0,0,323.7,244.261Z" transform="translate(-231.709 -237.941)" fill="#fff"/>
      <path id="Path_16891" data-name="Path 16891" d="M331.85,244.559v-2.425a.777.777,0,0,1,.408-.708,1.834,1.834,0,0,1,.469-.183,2.4,2.4,0,0,1,.576-.064,2.472,2.472,0,0,1,.585.064,1.761,1.761,0,0,1,.469.183.9.9,0,0,1,.3.3.779.779,0,0,1,.107.4v2.425H334.3V242.1a.459.459,0,0,0-.35-.432,1.7,1.7,0,0,0-.651-.115,1.641,1.641,0,0,0-.638.111.461.461,0,0,0-.35.437V243.2l-.021.193c.011-.033.017-.053.019-.06l.01-.06a3.875,3.875,0,0,1,.154-.459,1.268,1.268,0,0,1,.192-.331.884.884,0,0,1,.28-.227.765.765,0,0,1,.354-.082.648.648,0,0,1,.453.165.509.509,0,0,1,.193.424.5.5,0,0,1-.193.408.7.7,0,0,1-.453.153.642.642,0,0,1-.411-.144l-.035-.033a.378.378,0,0,1-.039-.041c-.005.014-.01.027-.014.039s-.009.026-.014.039a.039.039,0,0,0-.008.017.05.05,0,0,1-.013.02l.008,0c-.022.06-.043.121-.064.181s-.039.125-.056.193-.047.162-.066.239-.037.151-.053.222q-.033.132-.056.257c-.015.084-.027.166-.035.245Zm1.453-2.042a.229.229,0,0,0-.181.07.245.245,0,0,0-.062.169.229.229,0,0,0,.062.165.235.235,0,0,0,.181.066.239.239,0,0,0,.183-.068.23.23,0,0,0,.064-.163.227.227,0,0,0-.247-.239Z" transform="translate(-238.392 -237.914)" fill="#fff"/>
      <path id="Path_16892" data-name="Path 16892" d="M338.85,238.126v-1.145h.465v1.145Z" transform="translate(-242.762 -235.293)" fill="#fff"/>
      <path id="Path_16893" data-name="Path 16893" d="M343.286,244.559v-2.425a.777.777,0,0,1,.408-.708,1.834,1.834,0,0,1,.469-.183,2.4,2.4,0,0,1,.576-.064,2.472,2.472,0,0,1,.585.064,1.761,1.761,0,0,1,.469.183.9.9,0,0,1,.3.3.779.779,0,0,1,.107.4v2.425h-.465V242.1a.459.459,0,0,0-.35-.432,1.7,1.7,0,0,0-.651-.115,1.641,1.641,0,0,0-.638.111.461.461,0,0,0-.35.437V243.2l-.021.193c.011-.033.017-.053.019-.06l.01-.06a3.875,3.875,0,0,1,.154-.459,1.267,1.267,0,0,1,.192-.331.884.884,0,0,1,.28-.227.765.765,0,0,1,.354-.082.648.648,0,0,1,.453.165.509.509,0,0,1,.193.424.5.5,0,0,1-.193.408.7.7,0,0,1-.453.153.642.642,0,0,1-.411-.144l-.035-.033a.378.378,0,0,1-.039-.041c-.005.014-.01.027-.014.039s-.009.026-.014.039a.039.039,0,0,0-.008.017.051.051,0,0,1-.013.02l.008,0c-.022.06-.043.121-.063.181s-.039.125-.056.193-.047.162-.066.239-.037.151-.053.222q-.033.132-.056.257c-.015.084-.027.166-.035.245Zm1.453-2.042a.229.229,0,0,0-.181.07.247.247,0,0,0-.062.169.231.231,0,0,0,.062.165.235.235,0,0,0,.181.066.239.239,0,0,0,.183-.068.23.23,0,0,0,.064-.163.227.227,0,0,0-.247-.239Z" transform="translate(-245.532 -237.914)" fill="#fff"/>
      <path id="Path_16894" data-name="Path 16894" d="M356.847,244.532h-.457c-.008-.041-.015-.088-.021-.14s-.011-.1-.016-.144-.011-.082-.016-.121-.011-.082-.017-.125a3.313,3.313,0,0,0-.148-.515,2.5,2.5,0,0,0-.2-.408.953.953,0,0,0-.824-.482,1.231,1.231,0,0,0-.233.021,1.077,1.077,0,0,0-.187.054.35.35,0,0,0-.2.329v.338a.574.574,0,0,1,.234-.045.736.736,0,0,1,.5.181.561.561,0,0,1,.21.461.6.6,0,0,1-.177.437.8.8,0,0,1-1.025.033.589.589,0,0,1-.214-.486V243a.683.683,0,0,1,.08-.335.7.7,0,0,1,.225-.245,1.047,1.047,0,0,1,.344-.148,1.835,1.835,0,0,1,.442-.05,1.36,1.36,0,0,1,.828.26,1.158,1.158,0,0,1,.449.593c-.006-.063-.012-.128-.021-.2s-.015-.132-.021-.2v-.589a.443.443,0,0,0-.193-.362,1.443,1.443,0,0,0-.865-.21,1.376,1.376,0,0,0-.778.177.407.407,0,0,0-.214.354v.169h-.465V242a.71.71,0,0,1,.408-.626,2.085,2.085,0,0,1,1.05-.239,1.99,1.99,0,0,1,1.165.284.745.745,0,0,1,.354.634Zm-2.083-.329a.279.279,0,0,0,.212-.076.282.282,0,0,0,0-.379.272.272,0,0,0-.21-.08.259.259,0,0,0-.2.08.282.282,0,0,0,0,.377A.264.264,0,0,0,354.763,244.2Z" transform="translate(-252.14 -237.886)" fill="#fff"/>
      <path id="Path_16895" data-name="Path 16895" d="M354.394,238.194v-.165a.753.753,0,0,1,.251-.556h0a1.554,1.554,0,0,1,1.132-.35,2.061,2.061,0,0,1,1.2.3.93.93,0,0,1,.263.276.631.631,0,0,1,.091.329v.165Zm1.379-.708a1.139,1.139,0,0,0-.741.2.328.328,0,0,0-.052.056.554.554,0,0,0-.047.08h1.853a.612.612,0,0,0-.064-.076.58.58,0,0,0-.064-.056A1.569,1.569,0,0,0,355.773,237.486Z" transform="translate(-252.467 -235.381)" fill="#fff"/>
      <path id="Path_16896" data-name="Path 16896" d="M359.077,232.487a.508.508,0,0,1,.123.017.63.63,0,0,1,.132.05l.088.043a.14.14,0,0,0,.039.015l.043-.018a.471.471,0,0,0,.043-.023c.044-.022.085-.041.124-.058a.267.267,0,0,1,.1-.025.468.468,0,0,1,.333.148.449.449,0,0,1,.165.334.644.644,0,0,1-.1.366s-.007,0-.012.008a.36.36,0,0,0,.214-.14.548.548,0,0,0,.115-.212,2.04,2.04,0,0,0,.05-.282c.008-.027.016-.054.023-.08a.747.747,0,0,1,.023-.072c0-.005.008-.017.015-.033a.213.213,0,0,1,.018-.037H361a.473.473,0,0,0-.029.078c-.006.022-.011.041-.017.058a.545.545,0,0,0-.045.169c-.011.08-.021.144-.029.192a.654.654,0,0,1-.021.092.835.835,0,0,1-.068.157.6.6,0,0,1-.1.136.866.866,0,0,1-.36.224,1.6,1.6,0,0,1-.529.08h-.1v-.239a.615.615,0,0,0,.066-.06c.017-.018.03-.033.041-.047v0a.441.441,0,0,0,.1-.284.229.229,0,0,0-.054-.157.15.15,0,0,0-.111-.062.254.254,0,0,0-.064.017l-.1.037a.258.258,0,0,1-.064.024.247.247,0,0,1-.056.008.557.557,0,0,1-.1-.025l-.122-.041a.616.616,0,0,0-.091-.031.268.268,0,0,0-.057-.011.782.782,0,0,0-.085.056.342.342,0,0,0-.076.076.441.441,0,0,1,.107-.012.574.574,0,0,1,.181.029.477.477,0,0,1,.15.08.415.415,0,0,1,.1.124.33.33,0,0,1,.039.159.344.344,0,0,1-.161.3.471.471,0,0,1-.288.095.585.585,0,0,1-.383-.14.5.5,0,0,1-.185-.408.686.686,0,0,1,.194-.486.666.666,0,0,1,.189-.144A.44.44,0,0,1,359.077,232.487Zm-.025.687a.143.143,0,0,0-.1.037.121.121,0,0,0-.039.091.126.126,0,0,0,.035.085.134.134,0,0,0,.105.039.137.137,0,0,0,.105-.037.121.121,0,0,0,.035-.086.128.128,0,0,0-.035-.091A.139.139,0,0,0,359.052,233.174Z" transform="translate(-255.031 -232.487)" fill="#fff"/>
      <path id="Path_16897" data-name="Path 16897" d="M365.524,244.559V242.8a.508.508,0,0,1,.181-.4.671.671,0,0,1,.136-.091h-.461v-.247a.749.749,0,0,1,.37-.622,1.792,1.792,0,0,1,1.033-.255,2.335,2.335,0,0,1,.576.064,1.655,1.655,0,0,1,.449.183.784.784,0,0,1,.391.708v2.425h-.466V242.1a.449.449,0,0,0-.321-.432,1.582,1.582,0,0,0-.63-.115,1.425,1.425,0,0,0-.725.152.572.572,0,0,0-.2.268h.741v.391a1.706,1.706,0,0,0-.334.074h0a.428.428,0,0,0-.284.4v1.721Z" transform="translate(-259.326 -237.914)" fill="#fff"/>
    </g>
  </g>
</svg>
