<svg xmlns="http://www.w3.org/2000/svg" width="23.889" height="23.892" viewBox="0 0 23.889 23.892">
  <g id="messenger" transform="translate(-0.025 0)">
    <path id="Path_17621" data-name="Path 17621" d="M11.97,0A11.717,11.717,0,0,0,.025,11.449a11.231,11.231,0,0,0,3.982,8.52v3.424a.5.5,0,0,0,.761.422l2.774-1.733a12.325,12.325,0,0,0,4.427.813A11.717,11.717,0,0,0,23.914,11.45,11.717,11.717,0,0,0,11.97,0Z" transform="translate(0 0)" fill="#2196f3"/>
    <path id="Path_17622" data-name="Path 17622" d="M101.2,170.895a.5.5,0,0,0-.637-.139l-5.176,2.822-3.22-2.761a.5.5,0,0,0-.676.026l-5.972,5.972a.5.5,0,0,0,.59.788l5.176-2.822,3.223,2.762a.5.5,0,0,0,.676-.026l5.972-5.972A.5.5,0,0,0,101.2,170.895Z" transform="translate(-81.365 -162.73)" fill="#fafafa"/>
  </g>
</svg>
