<svg xmlns="http://www.w3.org/2000/svg" width="34" height="34" viewBox="0 0 34 34">
  <g id="Group_10728" data-name="Group 10728" transform="translate(-96 -1402)">
    <g id="file" transform="translate(65.057 1409.81)">
      <g id="Group_5769" data-name="Group 5769" transform="translate(40.097)">
        <g id="Group_5768" data-name="Group 5768" transform="translate(0)">
          <path id="Path_17454" data-name="Path 17454" d="M54.713,2.436h-1.55V.886A.888.888,0,0,0,52.277,0H40.983A.888.888,0,0,0,40.1.886V15.058a.888.888,0,0,0,.886.886h1.55v1.55a.888.888,0,0,0,.886.886h7.529a2.585,2.585,0,0,0,1.531-.607l2.474-2.329a2.352,2.352,0,0,0,.645-1.493V3.322A.888.888,0,0,0,54.713,2.436Zm-12.18.886V15.28h-1.55a.224.224,0,0,1-.221-.221V.886a.224.224,0,0,1,.221-.221H52.277A.225.225,0,0,1,52.5.886v1.55h-9.08A.888.888,0,0,0,42.533,3.322ZM54.5,14.96l-2.474,2.329a1.176,1.176,0,0,1-.19.139V15.391a.555.555,0,0,1,.554-.554H54.6A.93.93,0,0,1,54.5,14.96Zm.436-1.009a1.033,1.033,0,0,1-.03.221H52.387a1.22,1.22,0,0,0-1.218,1.218v2.3a1.158,1.158,0,0,1-.221.027H43.419a.224.224,0,0,1-.221-.221V3.322a.224.224,0,0,1,.221-.221H54.712a.224.224,0,0,1,.221.221Z" transform="translate(-40.097 0)" fill="#fff"/>
        </g>
      </g>
      <g id="Group_5771" data-name="Group 5771" transform="translate(45.523 5.536)">
        <g id="Group_5770" data-name="Group 5770" transform="translate(0)">
          <path id="Path_17455" data-name="Path 17455" d="M197.989,154.216h-6.422a.332.332,0,0,0,0,.664h6.422a.332.332,0,0,0,0-.664Z" transform="translate(-191.235 -154.216)" fill="#fff"/>
        </g>
      </g>
      <g id="Group_5773" data-name="Group 5773" transform="translate(45.523 9.965)">
        <g id="Group_5772" data-name="Group 5772" transform="translate(0)">
          <path id="Path_17456" data-name="Path 17456" d="M197.989,277.59h-6.422a.332.332,0,1,0,0,.664h6.422a.332.332,0,0,0,0-.664Z" transform="translate(-191.235 -277.59)" fill="#fff"/>
        </g>
      </g>
      <g id="Group_5775" data-name="Group 5775" transform="translate(45.523 12.18)">
        <g id="Group_5774" data-name="Group 5774" transform="translate(0)">
          <path id="Path_17457" data-name="Path 17457" d="M195.111,339.277h-3.543a.332.332,0,1,0,0,.664h3.543a.332.332,0,0,0,0-.664Z" transform="translate(-191.236 -339.277)" fill="#fff"/>
        </g>
      </g>
      <g id="Group_5777" data-name="Group 5777" transform="translate(45.523 7.751)">
        <g id="Group_5776" data-name="Group 5776" transform="translate(0)">
          <path id="Path_17458" data-name="Path 17458" d="M197.989,215.9h-6.422a.332.332,0,1,0,0,.664h6.422a.332.332,0,0,0,0-.664Z" transform="translate(-191.235 -215.903)" fill="#fff"/>
        </g>
      </g>
    </g>
    <g id="Path_19193" data-name="Path 19193" transform="translate(96 1402)" fill="none">
      <path d="M17,0A17,17,0,1,1,0,17,17,17,0,0,1,17,0Z" stroke="none"/>
      <path d="M 17 1 C 12.72624969482422 1 8.708290100097656 2.664289474487305 5.686290740966797 5.686290740966797 C 2.664289474487305 8.708290100097656 1 12.72624969482422 1 17 C 1 21.27375030517578 2.664289474487305 25.29170989990234 5.686290740966797 28.3137092590332 C 8.708290100097656 31.3357105255127 12.72624969482422 33 17 33 C 21.27375030517578 33 25.29170989990234 31.3357105255127 28.3137092590332 28.3137092590332 C 31.3357105255127 25.29170989990234 33 21.27375030517578 33 17 C 33 12.72624969482422 31.3357105255127 8.708290100097656 28.3137092590332 5.686290740966797 C 25.29170989990234 2.664289474487305 21.27375030517578 1 17 1 M 17 0 C 26.38883972167969 0 34 7.611160278320312 34 17 C 34 26.38883972167969 26.38883972167969 34 17 34 C 7.611160278320312 34 0 26.38883972167969 0 17 C 0 7.611160278320312 7.611160278320312 0 17 0 Z" stroke="none" fill="#fff"/>
    </g>
  </g>
</svg>
