<svg xmlns="http://www.w3.org/2000/svg" width="34" height="34" viewBox="0 0 34 34">
  <g id="Group_10730" data-name="Group 10730" transform="translate(-96 -1446)">
    <g id="search-6" transform="translate(102.457 1416.146)">
      <g id="Group_5779" data-name="Group 5779" transform="translate(7.437 43.719)">
        <g id="Group_5778" data-name="Group 5778" transform="translate(0 0)">
          <path id="Path_17459" data-name="Path 17459" d="M181.266,129.752l-2.366-1.69a.338.338,0,0,0-.393,0l-2.366,1.69a.338.338,0,0,0,.2.613h.338v2.366a.338.338,0,0,0,.338.338h3.38a.338.338,0,0,0,.338-.338v-2.366h.338a.338.338,0,0,0,.2-.613Zm-2.563-1,1.312.937h-2.623Zm1.352,3.641h-1.014V131.38h-.676v1.014h-1.014v-2.028h2.7Z" transform="translate(-175.999 -127.999)" fill="#fff"/>
        </g>
      </g>
      <g id="Group_5781" data-name="Group 5781" transform="translate(5.071 41.352)">
        <g id="Group_5780" data-name="Group 5780" transform="translate(0 0)">
          <path id="Path_17460" data-name="Path 17460" d="M125.071,72a5.071,5.071,0,1,0,5.071,5.071A5.071,5.071,0,0,0,125.071,72Zm0,9.465a4.395,4.395,0,1,1,4.395-4.395A4.4,4.4,0,0,1,125.071,81.465Z" transform="translate(-120 -72)" fill="#fff"/>
        </g>
      </g>
      <g id="Group_5783" data-name="Group 5783" transform="translate(0 40)">
        <g id="Group_5782" data-name="Group 5782" transform="translate(0 0)">
          <path id="Path_17461" data-name="Path 17461" d="M19.979,54.769l-2.6-2.6h2.9v-.676H16.7l-1.343-1.343a6.415,6.415,0,0,0,.745-1.362h3.162a.338.338,0,0,0,.338-.338V46.085h.338a.338.338,0,0,0,.2-.613l-2.366-1.69a.338.338,0,0,0-.393,0l-1.095.782a6.437,6.437,0,0,0-2.218-3.211h6.214v-.676h-7.29a6.35,6.35,0,0,0-5.7,0H0v.676H6.214A6.437,6.437,0,0,0,4,44.564L2.9,43.782a.338.338,0,0,0-.393,0L.142,45.472a.338.338,0,0,0,.2.613H.676v2.366a.338.338,0,0,0,.338.338H4.176a6.445,6.445,0,0,0,2.038,2.7H0v.676H7.29a6.355,6.355,0,0,0,6.171-.259L18.149,56.6a1.294,1.294,0,0,0,1.83-1.83Zm-2.4-10.3,1.312.937H16.476c-.007-.045-.013-.09-.021-.135Zm-1.014,1.951c0-.114-.011-.225-.017-.338h2.384v2.028H17.917V47.1H17.24v1.014h-.909A6.385,6.385,0,0,0,16.564,46.423ZM2.7,44.472l1.123.8c-.008.045-.014.09-.021.135H1.393Zm.338,3.641V47.1H2.366v1.014H1.352V46.085H3.736c-.006.113-.017.224-.017.338a6.385,6.385,0,0,0,.233,1.69ZM13.348,51.19a5.806,5.806,0,1,1,1.414-1.364.332.332,0,0,0-.127.077ZM19.5,56.121a.618.618,0,0,1-.874,0h0l-4.6-4.6a6.5,6.5,0,0,0,.907-.842L19.5,55.246a.621.621,0,0,1,.169.316A.609.609,0,0,1,19.5,56.121Z" transform="translate(0 -40)" fill="#fff"/>
        </g>
      </g>
    </g>
    <g id="Ellipse_272" data-name="Ellipse 272" transform="translate(96 1446)" fill="none" stroke="#fff" stroke-width="1">
      <circle cx="17" cy="17" r="17" stroke="none"/>
      <circle cx="17" cy="17" r="16.5" fill="none"/>
    </g>
  </g>
</svg>
