<svg xmlns="http://www.w3.org/2000/svg" width="34" height="34" viewBox="0 0 34 34">
  <g id="Group_10731" data-name="Group 10731" transform="translate(-96 -1510)">
    <g id="Ellipse_273" data-name="Ellipse 273" transform="translate(96 1510)" fill="none" stroke="#fff" stroke-width="1">
      <circle cx="17" cy="17" r="17" stroke="none"/>
      <circle cx="17" cy="17" r="16.5" fill="none"/>
    </g>
    <path id="clock-5" d="M15.056,2.583A8.819,8.819,0,0,0,2.583,15.056,8.819,8.819,0,0,0,15.056,2.583Zm-.391,12.082A8.267,8.267,0,0,1,2.974,2.974,8.267,8.267,0,1,1,14.665,14.665ZM9.1,3.517H8.543V2.044H9.1ZM8.543,14.122H9.1v1.473H8.543ZM3.517,9.1H2.044V8.543H3.517V9.1Zm12.078-.552V9.1H14.122V8.543ZM5.634,3.855,5.192,3.09l.478-.276.442.765ZM12,13.784l.442.765-.478.276-.442-.765ZM3.578,11.526,3.855,12l-.765.442-.276-.478ZM14.06,6.112l-.276-.478.765-.442.276.478ZM12,3.855l-.478-.276.442-.765.478.276Zm-6.37,9.929.478.276-.442.765-.478-.276Zm8.426-2.258.765.442-.276.478L13.784,12ZM3.09,5.193l.765.442-.276.478-.765-.442Zm6.6,3.627A.867.867,0,0,0,9.1,8V4.106H8.543V8a.865.865,0,1,0,.848,1.469l3.375,1.947.276-.478L9.668,8.99A.865.865,0,0,0,9.685,8.819Zm-.865.313a.313.313,0,1,1,.313-.313A.313.313,0,0,1,8.819,9.132Zm0-7.659a7.346,7.346,0,1,0,7.346,7.346A7.355,7.355,0,0,0,8.819,1.473Zm0,14.14a6.794,6.794,0,1,1,6.794-6.794A6.8,6.8,0,0,1,8.819,15.613Z" transform="translate(104.18 1518.181)" fill="#fff"/>
  </g>
</svg>
